<svg data-v-423bf9ae="" xmlns="http://www.w3.org/2000/svg" viewBox="0 0 592 90" class="iconLeftSlogan"><!----><defs data-v-423bf9ae=""><linearGradient data-v-423bf9ae="" gradientTransform="rotate(25)" id="43bc0f2f-d8e9-4165-99f3-86f64ccab0e9" x1="0%" y1="0%" x2="100%" y2="0%"><stop data-v-423bf9ae="" offset="0%" style="stop-color: rgb(0, 102, 120); stop-opacity: 1;"></stop><stop data-v-423bf9ae="" offset="100%" style="stop-color: rgb(79, 168, 255); stop-opacity: 1;"></stop></linearGradient></defs><!----><g data-v-423bf9ae="" id="8fdbe1a8-4e0f-4589-995d-93cd1d2b66be" fill="#ffffff" transform="matrix(4.0534096426402995,0,0,4.0534096426402995,121.65738733515585,-13.245111733497346)"><path d="M13.33 4.29L13.33 4.29L13.33 4.29Q13.33 4.31 13.21 4.57L13.21 4.57L13.21 4.57Q13.10 4.83 12.90 5.26L12.90 5.26L12.90 5.26Q12.70 5.69 12.43 6.25L12.43 6.25L12.43 6.25Q12.16 6.82 11.85 7.46L11.85 7.46L11.85 7.46Q11.55 8.09 11.22 8.77L11.22 8.77L11.22 8.77Q10.89 9.45 10.57 10.10L10.57 10.10L10.57 10.10Q10.25 10.75 9.96 11.34L9.96 11.34L9.96 11.34Q9.67 11.93 9.44 12.39L9.44 12.39L9.44 12.39Q9.21 12.86 9.06 13.17L9.06 13.17L9.06 13.17Q8.91 13.48 8.86 13.57L8.86 13.57L8.86 13.57Q8.84 13.62 8.80 13.63L8.80 13.63L8.80 13.63Q8.76 13.64 8.71 13.64L8.71 13.64L8.71 13.64Q8.67 13.64 8.65 13.62L8.65 13.62L8.65 13.62Q8.63 13.60 8.61 13.62L8.61 13.62L8.61 13.62Q8.57 13.65 8.52 13.62L8.52 13.62L8.52 13.62Q8.48 13.59 8.46 13.61L8.46 13.61L8.46 13.61Q8.38 13.68 8.34 13.69L8.34 13.69L8.34 13.69Q8.30 13.70 8.30 13.61L8.30 13.61L8.30 13.61Q8.31 13.44 8.25 13.06L8.25 13.06L8.25 13.06Q8.19 12.68 8.08 12.16L8.08 12.16L8.08 12.16Q7.98 11.65 7.83 11.04L7.83 11.04L7.83 11.04Q7.69 10.43 7.53 9.80L7.53 9.80L7.53 9.80Q7.38 9.16 7.22 8.54L7.22 8.54L7.22 8.54Q7.06 7.92 6.92 7.38L6.92 7.38L6.92 7.38Q6.77 6.84 6.67 6.43L6.67 6.43L6.67 6.43Q6.56 6.01 6.49 5.79L6.49 5.79L6.49 5.79Q6.39 6.05 6.22 6.50L6.22 6.50L6.22 6.50Q6.05 6.95 5.84 7.51L5.84 7.51L5.84 7.51Q5.64 8.07 5.41 8.70L5.41 8.70L5.41 8.70Q5.19 9.33 4.96 9.95L4.96 9.95L4.96 9.95Q4.74 10.58 4.54 11.15L4.54 11.15L4.54 11.15Q4.33 11.73 4.18 12.18L4.18 12.18L4.18 12.18Q4.02 12.63 3.92 12.91L3.92 12.91L3.92 12.91Q3.83 13.19 3.82 13.22L3.82 13.22L3.82 13.22Q3.81 13.24 3.79 13.28L3.79 13.28L3.79 13.28Q3.77 13.31 3.74 13.35L3.74 13.35L3.74 13.35Q3.71 13.40 3.66 13.46L3.66 13.46L3.66 13.46Q3.61 13.47 3.58 13.48L3.58 13.48L3.58 13.48Q3.55 13.49 3.51 13.49L3.51 13.49L3.51 13.49Q3.47 13.51 3.43 13.54L3.43 13.54L3.43 13.54Q3.40 13.56 3.37 13.58L3.37 13.58L3.37 13.58Q3.34 13.60 3.32 13.61L3.32 13.61L3.32 13.61Q3.28 13.64 3.25 13.67L3.25 13.67L3.25 13.67Q3.21 13.69 3.18 13.70L3.18 13.70L3.18 13.70Q3.17 13.70 3.12 13.69L3.12 13.69L3.12 13.69Q3.08 13.67 3.03 13.65L3.03 13.65L3.03 13.65Q2.99 13.63 2.95 13.61L2.95 13.61L2.95 13.61Q2.91 13.58 2.90 13.56L2.90 13.56L2.90 13.56Q2.86 13.46 2.79 13.20L2.79 13.20L2.79 13.20Q2.71 12.94 2.61 12.56L2.61 12.56L2.61 12.56Q2.50 12.17 2.38 11.69L2.38 11.69L2.38 11.69Q2.25 11.20 2.10 10.66L2.10 10.66L2.10 10.66Q1.96 10.12 1.80 9.55L1.80 9.55L1.80 9.55Q1.65 8.98 1.50 8.41L1.50 8.41L1.50 8.41Q1.38 7.96 1.25 7.50L1.25 7.50L1.25 7.50Q1.12 7.03 0.99 6.58L0.99 6.58L0.99 6.58Q0.86 6.13 0.74 5.72L0.74 5.72L0.74 5.72Q0.62 5.31 0.52 4.98L0.52 4.98L0.52 4.98Q0.42 4.65 0.36 4.42L0.36 4.42L0.36 4.42Q0.29 4.19 0.27 4.11L0.27 4.11L0.27 4.11Q0.25 4.05 0.30 4.01L0.30 4.01L0.30 4.01Q0.36 3.97 0.42 4.03L0.42 4.03L0.42 4.03Q0.46 4.06 0.50 4.03L0.50 4.03L0.50 4.03Q0.53 4.01 0.56 4.01L0.56 4.01L0.56 4.01Q0.58 4.01 0.63 4.02L0.63 4.02L0.63 4.02Q0.67 4.03 0.72 4.05L0.72 4.05L0.72 4.05Q0.77 4.07 0.81 4.09L0.81 4.09L0.81 4.09Q0.85 4.11 0.88 4.12L0.88 4.12L0.88 4.12Q0.91 4.14 0.92 4.13L0.92 4.13L0.92 4.13Q0.93 4.12 0.94 4.10L0.94 4.10L0.94 4.10Q0.95 4.08 0.96 4.06L0.96 4.06L0.96 4.06Q0.97 4.04 1.00 4.03L1.00 4.03L1.00 4.03Q1.08 4.00 1.15 4.03L1.15 4.03L1.15 4.03Q1.22 4.07 1.27 4.08L1.27 4.08L1.27 4.08Q1.31 4.09 1.31 4.07L1.31 4.07L1.31 4.07Q1.31 4.05 1.31 4.03L1.31 4.03L1.31 4.03Q1.31 4.01 1.32 3.99L1.32 3.99L1.32 3.99Q1.33 3.97 1.39 3.98L1.39 3.98L1.39 3.98Q1.48 3.98 1.55 4.02L1.55 4.02L1.55 4.02Q1.61 4.07 1.67 4.29L1.67 4.29L1.67 4.29Q1.68 4.34 1.76 4.62L1.76 4.62L1.76 4.62Q1.84 4.89 1.96 5.33L1.96 5.33L1.96 5.33Q2.08 5.76 2.23 6.30L2.23 6.30L2.23 6.30Q2.38 6.85 2.54 7.44L2.54 7.44L2.54 7.44Q2.71 8.03 2.87 8.63L2.87 8.63L2.87 8.63Q3.04 9.23 3.19 9.77L3.19 9.77L3.19 9.77Q3.34 10.31 3.46 10.75L3.46 10.75L3.46 10.75Q3.58 11.18 3.66 11.46L3.66 11.46L3.66 11.46Q3.85 11.08 4.09 10.51L4.09 10.51L4.09 10.51Q4.33 9.94 4.58 9.28L4.58 9.28L4.58 9.28Q4.83 8.63 5.09 7.94L5.09 7.94L5.09 7.94Q5.34 7.25 5.56 6.64L5.56 6.64L5.56 6.64Q5.78 6.02 5.95 5.53L5.95 5.53L5.95 5.53Q6.13 5.04 6.21 4.78L6.21 4.78L6.21 4.78Q6.27 4.62 6.29 4.49L6.29 4.49L6.29 4.49Q6.32 4.37 6.36 4.26L6.36 4.26L6.36 4.26Q6.40 4.18 6.47 4.07L6.47 4.07L6.47 4.07Q6.55 3.97 6.58 3.95L6.58 3.95L6.58 3.95Q6.68 3.91 6.74 3.92L6.74 3.92L6.74 3.92Q6.81 3.93 6.90 3.95L6.90 3.95L6.90 3.95Q6.94 3.96 6.95 3.94L6.95 3.94L6.95 3.94Q6.96 3.92 6.97 3.89L6.97 3.89L6.97 3.89Q6.97 3.86 6.99 3.82L6.99 3.82L6.99 3.82Q7 3.79 7.05 3.76L7.05 3.76L7.05 3.76Q7.23 3.67 7.27 3.68L7.27 3.68L7.27 3.68Q7.31 3.70 7.35 3.86L7.35 3.86L7.35 3.86Q7.36 3.89 7.42 4.17L7.42 4.17L7.42 4.17Q7.49 4.44 7.59 4.88L7.59 4.88L7.59 4.88Q7.70 5.32 7.83 5.89L7.83 5.89L7.83 5.89Q7.96 6.45 8.12 7.07L8.12 7.07L8.12 7.07Q8.27 7.68 8.43 8.31L8.43 8.31L8.43 8.31Q8.58 8.93 8.73 9.49L8.73 9.49L8.73 9.49Q8.87 10.05 9.00 10.50L9.00 10.50L9.00 10.50Q9.13 10.96 9.21 11.23L9.21 11.23L9.21 11.23Q9.30 11.04 9.47 10.71L9.47 10.71L9.47 10.71Q9.64 10.37 9.85 9.94L9.85 9.94L9.85 9.94Q10.06 9.50 10.32 8.99L10.32 8.99L10.32 8.99Q10.57 8.48 10.83 7.94L10.83 7.94L10.83 7.94Q11.09 7.40 11.34 6.86L11.34 6.86L11.34 6.86Q11.60 6.32 11.83 5.81L11.83 5.81L11.83 5.81Q12.05 5.30 12.24 4.86L12.24 4.86L12.24 4.86Q12.43 4.42 12.54 4.09L12.54 4.09L12.54 4.09Q12.56 4.03 12.61 3.97L12.61 3.97L12.61 3.97Q12.66 3.91 12.71 3.86L12.71 3.86L12.71 3.86Q12.76 3.81 12.81 3.78L12.81 3.78L12.81 3.78Q12.85 3.75 12.87 3.75L12.87 3.75L12.87 3.75Q12.92 3.76 12.97 3.78L12.97 3.78L12.97 3.78Q13.02 3.80 13.04 3.84L13.04 3.84L13.04 3.84Q13.06 3.87 13.07 3.89L13.07 3.89L13.07 3.89Q13.07 3.92 13.07 3.94L13.07 3.94L13.07 3.94Q13.08 3.96 13.09 3.97L13.09 3.97L13.09 3.97Q13.10 3.98 13.15 3.98L13.15 3.98L13.15 3.98Q13.21 3.98 13.23 4.01L13.23 4.01L13.23 4.01Q13.25 4.05 13.26 4.08L13.26 4.08L13.26 4.08Q13.26 4.12 13.26 4.15L13.26 4.15L13.26 4.15Q13.26 4.18 13.29 4.16L13.29 4.16L13.29 4.16Q13.32 4.16 13.33 4.21L13.33 4.21L13.33 4.21Q13.33 4.27 13.33 4.29ZM16.60 9.50L16.60 9.50L16.60 9.50Q16.60 9.73 16.56 10.08L16.56 10.08L16.56 10.08Q16.51 10.42 16.45 10.82L16.45 10.82L16.45 10.82Q16.39 11.21 16.33 11.62L16.33 11.62L16.33 11.62Q16.28 12.03 16.28 12.39L16.28 12.39L16.28 12.39Q16.28 12.63 16.31 12.85L16.31 12.85L16.31 12.85Q16.34 13.06 16.43 13.22L16.43 13.22L16.43 13.22Q16.47 13.31 16.48 13.38L16.48 13.38L16.48 13.38Q16.48 13.45 16.47 13.50L16.47 13.50L16.47 13.50Q16.45 13.55 16.44 13.59L16.44 13.59L16.44 13.59Q16.43 13.62 16.44 13.66L16.44 13.66L16.44 13.66Q16.45 13.69 16.43 13.74L16.43 13.74L16.43 13.74Q16.41 13.78 16.37 13.82L16.37 13.82L16.37 13.82Q16.33 13.86 16.28 13.87L16.28 13.87L16.28 13.87Q16.23 13.89 16.19 13.86L16.19 13.86L16.19 13.86Q16.11 13.82 16.07 13.81L16.07 13.81L16.07 13.81Q16.02 13.80 15.99 13.81L15.99 13.81L15.99 13.81Q15.96 13.82 15.94 13.84L15.94 13.84L15.94 13.84Q15.91 13.85 15.88 13.84L15.88 13.84L15.88 13.84Q15.76 13.77 15.63 13.69L15.63 13.69L15.63 13.69Q15.49 13.61 15.45 13.51L15.45 13.51L15.45 13.51Q15.42 13.47 15.40 13.38L15.40 13.38L15.40 13.38Q15.37 13.28 15.36 13.15L15.36 13.15L15.36 13.15Q15.34 13.02 15.33 12.87L15.33 12.87L15.33 12.87Q15.31 12.72 15.31 12.58L15.31 12.58L15.31 12.58Q15.08 13.00 14.82 13.28L14.82 13.28L14.82 13.28Q14.57 13.56 14.31 13.73L14.31 13.73L14.31 13.73Q14.05 13.90 13.81 13.97L13.81 13.97L13.81 13.97Q13.56 14.03 13.35 14.03L13.35 14.03L13.35 14.03Q13.14 14.03 12.98 13.98L12.98 13.98L12.98 13.98Q12.82 13.92 12.73 13.85L12.73 13.85L12.73 13.85Q12.39 13.51 12.25 13.31L12.25 13.31L12.25 13.31Q12.11 13.10 12.13 12.97L12.13 12.97L12.13 12.97Q12.16 12.53 12.34 12.16L12.34 12.16L12.34 12.16Q12.52 11.79 12.78 11.48L12.78 11.48L12.78 11.48Q13.05 11.17 13.38 10.92L13.38 10.92L13.38 10.92Q13.71 10.67 14.06 10.48L14.06 10.48L14.06 10.48Q14.40 10.28 14.74 10.15L14.74 10.15L14.74 10.15Q15.07 10.01 15.35 9.93L15.35 9.93L15.35 9.93Q15.33 9.56 15.32 9.29L15.32 9.29L15.32 9.29Q15.30 9.01 15.26 8.88L15.26 8.88L15.26 8.88Q15.16 8.46 14.95 8.25L14.95 8.25L14.95 8.25Q14.74 8.04 14.44 8.04L14.44 8.04L14.44 8.04Q14.25 8.04 14.05 8.18L14.05 8.18L14.05 8.18Q13.86 8.33 13.70 8.57L13.70 8.57L13.70 8.57Q13.54 8.82 13.44 9.14L13.44 9.14L13.44 9.14Q13.34 9.46 13.34 9.82L13.34 9.82L13.34 9.82Q13.34 9.91 13.34 9.99L13.34 9.99L13.34 9.99Q13.35 10.07 13.36 10.16L13.36 10.16L13.36 10.16Q13.37 10.21 13.33 10.23L13.33 10.23L13.33 10.23Q13.30 10.25 13.24 10.26L13.24 10.26L13.24 10.26Q13.19 10.27 13.13 10.27L13.13 10.27L13.13 10.27Q13.06 10.28 13.02 10.29L13.02 10.29L13.02 10.29Q12.99 10.31 12.97 10.31L12.97 10.31L12.97 10.31Q12.95 10.32 12.93 10.31L12.93 10.31L12.93 10.31Q12.91 10.29 12.88 10.27L12.88 10.27L12.88 10.27Q12.84 10.24 12.79 10.20L12.79 10.20L12.79 10.20Q12.74 10.16 12.68 10.13L12.68 10.13L12.68 10.13Q12.62 10.10 12.57 10.08L12.57 10.08L12.57 10.08Q12.53 10.06 12.50 10.05L12.50 10.05L12.50 10.05Q12.47 10.03 12.47 10.00L12.47 10.00L12.47 10.00Q12.47 9.58 12.66 9.13L12.66 9.13L12.66 9.13Q12.84 8.67 13.16 8.30L13.16 8.30L13.16 8.30Q13.48 7.93 13.90 7.69L13.90 7.69L13.90 7.69Q14.32 7.45 14.79 7.45L14.79 7.45L14.79 7.45Q15.18 7.45 15.46 7.57L15.46 7.57L15.46 7.57Q15.74 7.68 15.93 7.87L15.93 7.87L15.93 7.87Q16.13 8.05 16.26 8.28L16.26 8.28L16.26 8.28Q16.39 8.50 16.46 8.73L16.46 8.73L16.46 8.73Q16.53 8.96 16.56 9.16L16.56 9.16L16.56 9.16Q16.59 9.37 16.60 9.50ZM15.36 11.39L15.36 10.71L15.36 10.71Q15.16 10.79 14.91 10.91L14.91 10.91L14.91 10.91Q14.66 11.03 14.41 11.20L14.41 11.20L14.41 11.20Q14.16 11.37 13.90 11.59L13.90 11.59L13.90 11.59Q13.65 11.81 13.43 12.07L13.43 12.07L13.43 12.07Q13.17 12.38 13.06 12.62L13.06 12.62L13.06 12.62Q12.94 12.86 12.91 13.03L12.91 13.03L12.91 13.03Q12.89 13.19 12.93 13.29L12.93 13.29L12.93 13.29Q12.97 13.38 13.02 13.41L13.02 13.41L13.02 13.41Q13.23 13.49 13.46 13.42L13.46 13.42L13.46 13.42Q13.69 13.36 13.92 13.19L13.92 13.19L13.92 13.19Q14.15 13.02 14.37 12.79L14.37 12.79L14.37 12.79Q14.58 12.55 14.77 12.30L14.77 12.30L14.77 12.30Q14.96 12.05 15.11 11.81L15.11 11.81L15.11 11.81Q15.26 11.57 15.36 11.39L15.36 11.39ZM19.61 5.46L19.61 5.46L19.61 5.46Q19.61 5.50 19.59 5.68L19.59 5.68L19.59 5.68Q19.58 5.85 19.55 6.14L19.55 6.14L19.55 6.14Q19.53 6.43 19.50 6.81L19.50 6.81L19.50 6.81Q19.46 7.18 19.43 7.62L19.43 7.62L19.43 7.62Q19.86 7.57 20.24 7.54L20.24 7.54L20.24 7.54Q20.63 7.51 20.90 7.51L20.90 7.51L20.90 7.51Q20.99 7.51 21.05 7.54L21.05 7.54L21.05 7.54Q21.12 7.57 21.17 7.62L21.17 7.62L21.17 7.62Q21.21 7.66 21.24 7.71L21.24 7.71L21.24 7.71Q21.27 7.77 21.27 7.80L21.27 7.80L21.27 7.80Q21.27 7.83 21.28 7.86L21.28 7.86L21.28 7.86Q21.29 7.90 21.29 7.93L21.29 7.93L21.29 7.93Q21.29 8.07 21.17 8.20L21.17 8.20L21.17 8.20Q21.05 8.34 20.81 8.37L20.81 8.37L19.35 8.53L19.35 8.53Q19.32 9.02 19.29 9.54L19.29 9.54L19.29 9.54Q19.26 10.06 19.24 10.58L19.24 10.58L19.24 10.58Q19.22 11.09 19.20 11.59L19.20 11.59L19.20 11.59Q19.19 12.09 19.19 12.54L19.19 12.54L19.19 12.54Q19.19 12.82 19.20 13.00L19.20 13.00L19.20 13.00Q19.22 13.18 19.22 13.23L19.22 13.23L19.22 13.23Q19.22 13.35 19.17 13.46L19.17 13.46L19.17 13.46Q19.13 13.58 19.07 13.67L19.07 13.67L19.07 13.67Q19.01 13.76 18.95 13.82L18.95 13.82L18.95 13.82Q18.88 13.88 18.84 13.88L18.84 13.88L18.84 13.88Q18.59 13.88 18.45 13.72L18.45 13.72L18.45 13.72Q18.31 13.57 18.23 13.31L18.23 13.31L18.23 13.31Q18.16 13.05 18.14 12.71L18.14 12.71L18.14 12.71Q18.12 12.38 18.12 12.02L18.12 12.02L18.12 12.02Q18.12 11.16 18.17 10.31L18.17 10.31L18.17 10.31Q18.22 9.45 18.31 8.65L18.31 8.65L17.45 8.76L17.45 8.76Q17.43 8.76 17.41 8.76L17.41 8.76L17.41 8.76Q17.39 8.77 17.36 8.77L17.36 8.77L17.36 8.77Q17.23 8.77 17.15 8.71L17.15 8.71L17.15 8.71Q17.08 8.65 17.04 8.57L17.04 8.57L17.04 8.57Q16.99 8.48 16.98 8.40L16.98 8.40L16.98 8.40Q16.97 8.31 16.97 8.26L16.97 8.26L16.97 8.26Q16.97 8.17 17.00 8.09L17.00 8.09L17.00 8.09Q17.03 8.00 17.10 7.98L17.10 7.98L17.10 7.98Q17.25 7.93 17.61 7.86L17.61 7.86L17.61 7.86Q17.96 7.80 18.42 7.73L18.42 7.73L18.42 7.73Q18.49 7.18 18.57 6.72L18.57 6.72L18.57 6.72Q18.65 6.25 18.72 5.92L18.72 5.92L18.72 5.92Q18.80 5.58 18.86 5.39L18.86 5.39L18.86 5.39Q18.93 5.20 18.98 5.20L18.98 5.20L18.98 5.20Q18.99 5.20 19.01 5.21L19.01 5.21L19.01 5.21Q19.03 5.22 19.04 5.22L19.04 5.22L19.04 5.22Q19.09 5.22 19.11 5.17L19.11 5.17L19.11 5.17Q19.13 5.13 19.20 5.13L19.20 5.13L19.20 5.13Q19.26 5.13 19.34 5.16L19.34 5.16L19.34 5.16Q19.41 5.20 19.47 5.26L19.47 5.26L19.47 5.26Q19.52 5.31 19.56 5.37L19.56 5.37L19.56 5.37Q19.61 5.43 19.61 5.46ZM25.57 11.01L25.57 11.01L25.57 11.01Q25.57 11.08 25.58 11.18L25.58 11.18L25.58 11.18Q25.59 11.29 25.59 11.42L25.59 11.42L25.59 11.42Q25.59 11.58 25.54 11.82L25.54 11.82L25.54 11.82Q25.49 12.07 25.39 12.33L25.39 12.33L25.39 12.33Q25.28 12.60 25.10 12.87L25.10 12.87L25.10 12.87Q24.92 13.13 24.66 13.34L24.66 13.34L24.66 13.34Q24.40 13.56 24.05 13.69L24.05 13.69L24.05 13.69Q23.70 13.82 23.25 13.82L23.25 13.82L23.25 13.82Q22.85 13.82 22.43 13.67L22.43 13.67L22.43 13.67Q22.00 13.51 21.66 13.19L21.66 13.19L21.66 13.19Q21.31 12.87 21.09 12.36L21.09 12.36L21.09 12.36Q20.87 11.86 20.87 11.16L20.87 11.16L20.87 11.16Q20.87 10.73 20.98 10.30L20.98 10.30L20.98 10.30Q21.10 9.88 21.28 9.50L21.28 9.50L21.28 9.50Q21.47 9.13 21.73 8.81L21.73 8.81L21.73 8.81Q21.98 8.49 22.27 8.26L22.27 8.26L22.27 8.26Q22.55 8.03 22.86 7.90L22.86 7.90L22.86 7.90Q23.16 7.77 23.45 7.77L23.45 7.77L23.45 7.77Q23.95 7.77 24.27 7.93L24.27 7.93L24.27 7.93Q24.60 8.09 24.79 8.32L24.79 8.32L24.79 8.32Q24.98 8.55 25.06 8.81L25.06 8.81L25.06 8.81Q25.14 9.08 25.14 9.29L25.14 9.29L25.14 9.29Q25.14 9.50 25.04 9.76L25.04 9.76L25.04 9.76Q24.94 10.02 24.71 10.26L24.71 10.26L24.71 10.26Q24.49 10.49 24.12 10.65L24.12 10.65L24.12 10.65Q23.76 10.81 23.24 10.81L23.24 10.81L23.24 10.81Q22.96 10.81 22.73 10.74L22.73 10.74L22.73 10.74Q22.51 10.66 22.34 10.54L22.34 10.54L22.34 10.54Q22.17 10.42 22.05 10.28L22.05 10.28L22.05 10.28Q21.93 10.14 21.85 10.01L21.85 10.01L21.85 10.01Q21.72 10.44 21.72 11.01L21.72 11.01L21.72 11.01Q21.72 11.40 21.84 11.71L21.84 11.71L21.84 11.71Q21.95 12.02 22.15 12.24L22.15 12.24L22.15 12.24Q22.35 12.46 22.62 12.57L22.62 12.57L22.62 12.57Q22.89 12.69 23.22 12.69L23.22 12.69L23.22 12.69Q23.63 12.69 23.94 12.55L23.94 12.55L23.94 12.55Q24.25 12.41 24.48 12.20L24.48 12.20L24.48 12.20Q24.71 11.98 24.87 11.73L24.87 11.73L24.87 11.73Q25.04 11.48 25.16 11.28L25.16 11.28L25.16 11.28Q25.29 11.07 25.38 10.93L25.38 10.93L25.38 10.93Q25.47 10.79 25.56 10.80L25.56 10.80L25.56 10.80Q25.60 10.80 25.60 10.87L25.60 10.87L25.60 10.87Q25.60 10.90 25.59 10.94L25.59 10.94L25.59 10.94Q25.59 10.97 25.57 11.01ZM23.52 8.46L23.52 8.46L23.52 8.46Q23.39 8.46 23.20 8.51L23.20 8.51L23.20 8.51Q23.00 8.57 22.79 8.70L22.79 8.70L22.79 8.70Q22.57 8.83 22.36 9.05L22.36 9.05L22.36 9.05Q22.15 9.27 21.99 9.61L21.99 9.61L21.99 9.61Q22.09 9.56 22.16 9.53L22.16 9.53L22.16 9.53Q22.23 9.50 22.26 9.50L22.26 9.50L22.26 9.50Q22.27 9.50 22.30 9.52L22.30 9.52L22.30 9.52Q22.46 9.79 22.69 9.90L22.69 9.90L22.69 9.90Q22.93 10.01 23.22 10.01L23.22 10.01L23.22 10.01Q23.45 10.01 23.62 9.94L23.62 9.94L23.62 9.94Q23.79 9.86 23.90 9.73L23.90 9.73L23.90 9.73Q24.01 9.61 24.06 9.46L24.06 9.46L24.06 9.46Q24.10 9.32 24.10 9.17L24.10 9.17L24.10 9.17Q24.10 8.87 23.95 8.66L23.95 8.66L23.95 8.66Q23.79 8.46 23.52 8.46ZM29.81 8.59L29.81 8.59L29.81 8.59Q29.80 8.78 29.77 8.98L29.77 8.98L29.77 8.98Q29.74 9.17 29.69 9.35L29.69 9.35L29.69 9.35Q29.63 9.52 29.56 9.66L29.56 9.66L29.56 9.66Q29.48 9.80 29.38 9.88L29.38 9.88L29.38 9.88Q29.30 9.95 29.25 9.95L29.25 9.95L29.25 9.95Q29.20 9.95 29.17 9.92L29.17 9.92L29.17 9.92Q29.14 9.89 29.12 9.86L29.12 9.86L29.12 9.86Q29.10 9.82 29.07 9.82L29.07 9.82L29.07 9.82Q29.04 9.81 28.99 9.82L28.99 9.82L28.99 9.82Q28.95 9.83 28.91 9.82L28.91 9.82L28.91 9.82Q28.86 9.82 28.82 9.77L28.82 9.77L28.82 9.77Q28.79 9.73 28.77 9.61L28.77 9.61L28.77 9.61Q28.76 9.48 28.78 9.27L28.78 9.27L28.78 9.27Q28.81 9.06 28.81 8.87L28.81 8.87L28.81 8.87Q28.81 8.69 28.77 8.57L28.77 8.57L28.77 8.57Q28.73 8.45 28.64 8.45L28.64 8.45L28.64 8.45Q28.59 8.45 28.47 8.52L28.47 8.52L28.47 8.52Q28.35 8.59 28.21 8.83L28.21 8.83L28.21 8.83Q28.06 9.06 27.92 9.50L27.92 9.50L27.92 9.50Q27.77 9.94 27.69 10.67L27.69 10.67L27.69 10.67Q27.69 11.61 27.70 12.19L27.70 12.19L27.70 12.19Q27.71 12.76 27.71 13.08L27.71 13.08L27.71 13.08Q27.71 13.36 27.70 13.47L27.70 13.47L27.70 13.47Q27.69 13.59 27.63 13.62L27.63 13.62L27.63 13.62Q27.60 13.64 27.50 13.68L27.50 13.68L27.50 13.68Q27.40 13.71 27.29 13.73L27.29 13.73L27.29 13.73Q27.17 13.76 27.07 13.78L27.07 13.78L27.07 13.78Q26.97 13.80 26.94 13.79L26.94 13.79L26.94 13.79Q26.92 13.79 26.87 13.75L26.87 13.75L26.87 13.75Q26.81 13.71 26.75 13.66L26.75 13.66L26.75 13.66Q26.69 13.60 26.65 13.55L26.65 13.55L26.65 13.55Q26.60 13.49 26.59 13.45L26.59 13.45L26.59 13.45Q26.58 13.38 26.58 13.14L26.58 13.14L26.58 13.14Q26.58 12.89 26.59 12.55L26.59 12.55L26.59 12.55Q26.59 12.21 26.60 11.80L26.60 11.80L26.60 11.80Q26.61 11.40 26.61 10.99L26.61 10.99L26.61 10.99Q26.61 10.73 26.62 10.41L26.62 10.41L26.62 10.41Q26.64 10.10 26.66 9.77L26.66 9.77L26.66 9.77Q26.69 9.44 26.71 9.13L26.71 9.13L26.71 9.13Q26.74 8.81 26.77 8.56L26.77 8.56L26.77 8.56Q26.79 8.31 26.81 8.15L26.81 8.15L26.81 8.15Q26.82 7.98 26.83 7.94L26.83 7.94L26.83 7.94Q26.84 7.89 26.88 7.90L26.88 7.90L26.88 7.90Q26.93 7.92 26.98 7.95L26.98 7.95L26.98 7.95Q27.03 7.98 27.07 8.01L27.07 8.01L27.07 8.01Q27.11 8.04 27.13 8.01L27.13 8.01L27.13 8.01Q27.14 7.95 27.23 7.99L27.23 7.99L27.23 7.99Q27.32 8.04 27.39 8.09L27.39 8.09L27.39 8.09Q27.42 8.13 27.46 8.15L27.46 8.15L27.46 8.15Q27.49 8.18 27.53 8.21L27.53 8.21L27.53 8.21Q27.56 8.25 27.59 8.31L27.59 8.31L27.59 8.31Q27.61 8.37 27.61 8.48L27.61 8.48L27.61 8.48Q27.61 8.57 27.62 8.76L27.62 8.76L27.62 8.76Q27.64 8.96 27.66 9.21L27.66 9.21L27.66 9.21Q27.73 8.97 27.84 8.70L27.84 8.70L27.84 8.70Q27.95 8.42 28.10 8.19L28.10 8.19L28.10 8.19Q28.25 7.96 28.45 7.81L28.45 7.81L28.45 7.81Q28.66 7.66 28.94 7.66L28.94 7.66L28.94 7.66Q29.10 7.66 29.26 7.72L29.26 7.72L29.26 7.72Q29.42 7.79 29.54 7.91L29.54 7.91L29.54 7.91Q29.67 8.03 29.74 8.20L29.74 8.20L29.74 8.20Q29.82 8.37 29.81 8.59ZM41.73 13.66L41.73 13.66L41.73 13.66Q41.69 13.86 41.62 13.98L41.62 13.98L41.62 13.98Q41.56 14.10 41.48 14.19L41.48 14.19L41.48 14.19Q41.41 14.28 41.35 14.35L41.35 14.35L41.35 14.35Q41.29 14.41 41.26 14.49L41.26 14.49L41.26 14.49Q41.19 14.71 41.02 14.88L41.02 14.88L41.02 14.88Q40.84 15.05 40.61 15.17L40.61 15.17L40.61 15.17Q40.39 15.29 40.14 15.36L40.14 15.36L40.14 15.36Q39.89 15.42 39.70 15.42L39.70 15.42L39.70 15.42Q39.33 15.42 39.02 15.28L39.02 15.28L39.02 15.28Q38.71 15.13 38.44 14.86L38.44 14.86L38.44 14.86Q38.17 14.59 37.92 14.20L37.92 14.20L37.92 14.20Q37.67 13.82 37.43 13.33L37.43 13.33L37.43 13.33Q37.14 13.43 36.90 13.46L36.90 13.46L36.90 13.46Q36.66 13.50 36.50 13.50L36.50 13.50L36.50 13.50Q36.37 13.50 36.15 13.47L36.15 13.47L36.15 13.47Q35.92 13.44 35.63 13.35L35.63 13.35L35.63 13.35Q35.34 13.25 35.02 13.09L35.02 13.09L35.02 13.09Q34.70 12.93 34.39 12.67L34.39 12.67L34.39 12.67Q34.26 12.79 34.13 12.93L34.13 12.93L34.13 12.93Q34.00 13.06 33.88 13.19L33.88 13.19L33.88 13.19Q33.77 13.31 33.68 13.40L33.68 13.40L33.68 13.40Q33.60 13.48 33.56 13.49L33.56 13.49L33.56 13.49Q33.59 13.49 33.57 13.49L33.57 13.49L33.57 13.49Q33.54 13.49 33.50 13.48L33.50 13.48L33.50 13.48Q33.46 13.47 33.42 13.46L33.42 13.46L33.42 13.46Q33.38 13.45 33.38 13.42L33.38 13.42L33.38 13.42Q33.38 13.36 33.45 13.26L33.45 13.26L33.45 13.26Q33.52 13.16 33.64 13.03L33.64 13.03L33.64 13.03Q33.75 12.89 33.89 12.75L33.89 12.75L33.89 12.75Q34.03 12.60 34.17 12.46L34.17 12.46L34.17 12.46Q33.93 12.23 33.71 11.92L33.71 11.92L33.71 11.92Q33.49 11.60 33.33 11.20L33.33 11.20L33.33 11.20Q33.16 10.80 33.06 10.31L33.06 10.31L33.06 10.31Q32.96 9.82 32.96 9.21L32.96 9.21L32.96 9.21Q32.96 8.20 33.17 7.41L33.17 7.41L33.17 7.41Q33.39 6.62 33.71 6.03L33.71 6.03L33.71 6.03Q34.04 5.45 34.44 5.05L34.44 5.05L34.44 5.05Q34.83 4.65 35.19 4.40L35.19 4.40L35.19 4.40Q35.55 4.16 35.82 4.05L35.82 4.05L35.82 4.05Q36.09 3.94 36.18 3.94L36.18 3.94L36.18 3.94Q36.20 3.94 36.26 3.94L36.26 3.94L36.26 3.94Q36.33 3.94 36.40 3.95L36.40 3.95L36.40 3.95Q36.47 3.96 36.53 4.00L36.53 4.00L36.53 4.00Q36.59 4.03 36.59 4.11L36.59 4.11L36.59 4.11Q36.66 4.07 36.76 4.04L36.76 4.04L36.76 4.04Q36.86 4.01 37.05 4.01L37.05 4.01L37.05 4.01Q37.31 4.01 37.67 4.06L37.67 4.06L37.67 4.06Q38.03 4.12 38.42 4.27L38.42 4.27L38.42 4.27Q38.81 4.43 39.19 4.72L39.19 4.72L39.19 4.72Q39.58 5.01 39.88 5.49L39.88 5.49L39.88 5.49Q40.19 5.97 40.38 6.65L40.38 6.65L40.38 6.65Q40.56 7.34 40.56 8.29L40.56 8.29L40.56 8.29Q40.56 9.26 40.38 10.01L40.38 10.01L40.38 10.01Q40.19 10.75 39.88 11.31L39.88 11.31L39.88 11.31Q39.57 11.87 39.18 12.25L39.18 12.25L39.18 12.25Q38.79 12.63 38.38 12.89L38.38 12.89L38.38 12.89Q38.50 13.13 38.68 13.40L38.68 13.40L38.68 13.40Q38.87 13.67 39.10 13.89L39.10 13.89L39.10 13.89Q39.34 14.12 39.63 14.27L39.63 14.27L39.63 14.27Q39.92 14.42 40.24 14.42L40.24 14.42L40.24 14.42Q40.60 14.42 41.00 14.25L41.00 14.25L41.00 14.25Q41.41 14.08 41.73 13.66ZM36.22 4.71L36.05 4.68L36.05 4.68Q35.70 4.90 35.38 5.28L35.38 5.28L35.38 5.28Q35.05 5.65 34.81 6.21L34.81 6.21L34.81 6.21Q34.56 6.77 34.41 7.54L34.41 7.54L34.41 7.54Q34.26 8.30 34.26 9.29L34.26 9.29L34.26 9.29Q34.26 10.07 34.47 10.71L34.47 10.71L34.47 10.71Q34.68 11.35 35.01 11.82L35.01 11.82L35.01 11.82Q35.31 11.63 35.63 11.52L35.63 11.52L35.63 11.52Q35.94 11.42 36.32 11.42L36.32 11.42L36.32 11.42Q36.85 11.42 37.27 11.62L37.27 11.62L37.27 11.62Q37.68 11.83 37.97 12.22L37.97 12.22L37.97 12.22Q38.28 11.92 38.53 11.46L38.53 11.46L38.53 11.46Q38.78 11.00 38.95 10.45L38.95 10.45L38.95 10.45Q39.12 9.90 39.21 9.29L39.21 9.29L39.21 9.29Q39.31 8.69 39.31 8.11L39.31 8.11L39.31 8.11Q39.31 7.34 39.14 6.68L39.14 6.68L39.14 6.68Q38.97 6.02 38.67 5.54L38.67 5.54L38.67 5.54Q38.37 5.06 37.95 4.79L37.95 4.79L37.95 4.79Q37.54 4.51 37.04 4.51L37.04 4.51L37.04 4.51Q36.90 4.51 36.79 4.55L36.79 4.55L36.79 4.55Q36.67 4.59 36.59 4.63L36.59 4.63L36.59 4.63Q36.50 4.68 36.44 4.71L36.44 4.71L36.44 4.71Q36.38 4.75 36.35 4.75L36.35 4.75L36.35 4.75Q36.29 4.75 36.22 4.71L36.22 4.71ZM35.22 12.10L35.22 12.10L35.22 12.10Q35.33 12.24 35.46 12.36L35.46 12.36L35.46 12.36Q35.60 12.49 35.76 12.59L35.76 12.59L35.76 12.59Q35.92 12.69 36.11 12.75L36.11 12.75L36.11 12.75Q36.29 12.80 36.50 12.80L36.50 12.80L36.50 12.80Q36.76 12.80 37.05 12.73L37.05 12.73L37.05 12.73Q36.70 12.24 36.42 12.03L36.42 12.03L36.42 12.03Q36.14 11.83 35.90 11.83L35.90 11.83L35.90 11.83Q35.80 11.83 35.69 11.87L35.69 11.87L35.69 11.87Q35.58 11.90 35.48 11.95L35.48 11.95L35.48 11.95Q35.38 11.99 35.31 12.03L35.31 12.03L35.31 12.03Q35.24 12.08 35.22 12.10ZM45.86 13.46L45.86 13.46L45.86 13.46Q45.86 13.52 45.75 13.61L45.75 13.61L45.75 13.61Q45.65 13.70 45.49 13.70L45.49 13.70L45.49 13.70Q45.45 13.70 45.32 13.65L45.32 13.65L45.32 13.65Q45.19 13.60 45.06 13.51L45.06 13.51L45.06 13.51Q44.92 13.42 44.81 13.29L44.81 13.29L44.81 13.29Q44.70 13.15 44.69 12.98L44.69 12.98L44.69 12.98Q44.68 12.91 44.68 12.77L44.68 12.77L44.68 12.77Q44.68 12.64 44.68 12.46L44.68 12.46L44.68 12.46Q44.68 12.19 44.68 11.85L44.68 11.85L44.68 11.85Q44.68 11.52 44.69 11.18L44.69 11.18L44.69 11.18Q44.65 11.42 44.58 11.69L44.58 11.69L44.58 11.69Q44.51 11.95 44.41 12.21L44.41 12.21L44.41 12.21Q44.30 12.47 44.17 12.72L44.17 12.72L44.17 12.72Q44.03 12.97 43.85 13.21L43.85 13.21L43.85 13.21Q43.76 13.33 43.65 13.42L43.65 13.42L43.65 13.42Q43.54 13.50 43.44 13.56L43.44 13.56L43.44 13.56Q43.34 13.62 43.25 13.64L43.25 13.64L43.25 13.64Q43.16 13.67 43.11 13.67L43.11 13.67L43.11 13.67Q43.09 13.67 42.99 13.61L42.99 13.61L42.99 13.61Q42.89 13.56 42.76 13.46L42.76 13.46L42.76 13.46Q42.62 13.37 42.47 13.26L42.47 13.26L42.47 13.26Q42.32 13.15 42.18 13.03L42.18 13.03L42.18 13.03Q42.05 12.92 41.94 12.82L41.94 12.82L41.94 12.82Q41.83 12.72 41.78 12.66L41.78 12.66L41.78 12.66Q41.73 12.59 41.70 12.43L41.70 12.43L41.70 12.43Q41.66 12.26 41.63 12.02L41.63 12.02L41.63 12.02Q41.60 11.79 41.59 11.48L41.59 11.48L41.59 11.48Q41.57 11.18 41.57 10.84L41.57 10.84L41.57 10.84Q41.57 10.66 41.58 10.36L41.58 10.36L41.58 10.36Q41.58 10.07 41.60 9.73L41.60 9.73L41.60 9.73Q41.62 9.39 41.65 9.05L41.65 9.05L41.65 9.05Q41.69 8.70 41.73 8.43L41.73 8.43L41.73 8.43Q41.77 8.15 41.84 7.97L41.84 7.97L41.84 7.97Q41.90 7.80 41.98 7.80L41.98 7.80L41.98 7.80Q42.03 7.80 42.17 7.83L42.17 7.83L42.17 7.83Q42.31 7.86 42.45 7.86L42.45 7.86L42.45 7.86Q42.66 7.86 42.75 7.82L42.75 7.82L42.75 7.82Q42.83 7.79 42.88 7.79L42.88 7.79L42.88 7.79Q42.94 7.79 42.94 7.90L42.94 7.90L42.94 7.90Q42.94 7.94 42.94 7.97L42.94 7.97L42.94 7.97Q42.94 8.00 42.93 8.04L42.93 8.04L42.93 8.04Q42.92 8.08 42.90 8.25L42.90 8.25L42.90 8.25Q42.88 8.42 42.84 8.69L42.84 8.69L42.84 8.69Q42.81 8.96 42.77 9.29L42.77 9.29L42.77 9.29Q42.74 9.62 42.71 9.98L42.71 9.98L42.71 9.98Q42.68 10.34 42.66 10.71L42.66 10.71L42.66 10.71Q42.64 11.08 42.64 11.42L42.64 11.42L42.64 11.42Q42.64 11.64 42.65 11.87L42.65 11.87L42.65 11.87Q42.66 12.09 42.68 12.28L42.68 12.28L42.68 12.28Q42.71 12.46 42.76 12.57L42.76 12.57L42.76 12.57Q42.81 12.69 42.88 12.69L42.88 12.69L42.88 12.69Q42.94 12.69 43.05 12.63L43.05 12.63L43.05 12.63Q43.16 12.57 43.32 12.39L43.32 12.39L43.32 12.39Q43.47 12.22 43.65 11.89L43.65 11.89L43.65 11.89Q43.84 11.56 44.05 11.02L44.05 11.02L44.05 11.02Q44.27 10.47 44.51 9.68L44.51 9.68L44.51 9.68Q44.74 8.89 44.99 7.80L44.99 7.80L44.99 7.80Q44.99 7.78 45.01 7.77L45.01 7.77L45.01 7.77Q45.04 7.76 45.07 7.76L45.07 7.76L45.07 7.76Q45.16 7.76 45.29 7.78L45.29 7.78L45.29 7.78Q45.43 7.79 45.56 7.82L45.56 7.82L45.56 7.82Q45.68 7.85 45.78 7.90L45.78 7.90L45.78 7.90Q45.87 7.94 45.87 7.98L45.87 7.98L45.87 7.98Q45.87 8.29 45.84 8.65L45.84 8.65L45.84 8.65Q45.81 9.02 45.78 9.40L45.78 9.40L45.78 9.40Q45.75 9.79 45.72 10.19L45.72 10.19L45.72 10.19Q45.69 10.60 45.69 10.99L45.69 10.99L45.69 10.99Q45.69 11.70 45.74 12.35L45.74 12.35L45.74 12.35Q45.78 13.00 45.86 13.46ZM51.15 9.50L51.15 9.50L51.15 9.50Q51.16 9.73 51.11 10.08L51.11 10.08L51.11 10.08Q51.06 10.42 51.00 10.82L51.00 10.82L51.00 10.82Q50.94 11.21 50.89 11.62L50.89 11.62L50.89 11.62Q50.83 12.03 50.83 12.39L50.83 12.39L50.83 12.39Q50.83 12.63 50.87 12.85L50.87 12.85L50.87 12.85Q50.90 13.06 50.98 13.22L50.98 13.22L50.98 13.22Q51.03 13.31 51.03 13.38L51.03 13.38L51.03 13.38Q51.04 13.45 51.02 13.50L51.02 13.50L51.02 13.50Q51.01 13.55 51.00 13.59L51.00 13.59L51.00 13.59Q50.98 13.62 51.00 13.66L51.00 13.66L51.00 13.66Q51.01 13.69 50.99 13.74L50.99 13.74L50.99 13.74Q50.97 13.78 50.93 13.82L50.93 13.82L50.93 13.82Q50.89 13.86 50.84 13.87L50.84 13.87L50.84 13.87Q50.78 13.89 50.74 13.86L50.74 13.86L50.74 13.86Q50.67 13.82 50.62 13.81L50.62 13.81L50.62 13.81Q50.58 13.80 50.55 13.81L50.55 13.81L50.55 13.81Q50.52 13.82 50.49 13.84L50.49 13.84L50.49 13.84Q50.47 13.85 50.44 13.84L50.44 13.84L50.44 13.84Q50.32 13.77 50.18 13.69L50.18 13.69L50.18 13.69Q50.05 13.61 50.00 13.51L50.00 13.51L50.00 13.51Q49.98 13.47 49.95 13.38L49.95 13.38L49.95 13.38Q49.93 13.28 49.91 13.15L49.91 13.15L49.91 13.15Q49.90 13.02 49.88 12.87L49.88 12.87L49.88 12.87Q49.87 12.72 49.86 12.58L49.86 12.58L49.86 12.58Q49.64 13.00 49.38 13.28L49.38 13.28L49.38 13.28Q49.12 13.56 48.87 13.73L48.87 13.73L48.87 13.73Q48.61 13.90 48.36 13.97L48.36 13.97L48.36 13.97Q48.11 14.03 47.91 14.03L47.91 14.03L47.91 14.03Q47.69 14.03 47.53 13.98L47.53 13.98L47.53 13.98Q47.37 13.92 47.28 13.85L47.28 13.85L47.28 13.85Q46.95 13.51 46.81 13.31L46.81 13.31L46.81 13.31Q46.67 13.10 46.68 12.97L46.68 12.97L46.68 12.97Q46.72 12.53 46.89 12.16L46.89 12.16L46.89 12.16Q47.07 11.79 47.34 11.48L47.34 11.48L47.34 11.48Q47.61 11.17 47.94 10.92L47.94 10.92L47.94 10.92Q48.27 10.67 48.61 10.48L48.61 10.48L48.61 10.48Q48.96 10.28 49.29 10.15L49.29 10.15L49.29 10.15Q49.63 10.01 49.90 9.93L49.90 9.93L49.90 9.93Q49.89 9.56 49.87 9.29L49.87 9.29L49.87 9.29Q49.85 9.01 49.82 8.88L49.82 8.88L49.82 8.88Q49.72 8.46 49.51 8.25L49.51 8.25L49.51 8.25Q49.29 8.04 48.99 8.04L48.99 8.04L48.99 8.04Q48.80 8.04 48.61 8.18L48.61 8.18L48.61 8.18Q48.41 8.33 48.25 8.57L48.25 8.57L48.25 8.57Q48.10 8.82 48.00 9.14L48.00 9.14L48.00 9.14Q47.90 9.46 47.89 9.82L47.89 9.82L47.89 9.82Q47.89 9.91 47.90 9.99L47.90 9.99L47.90 9.99Q47.91 10.07 47.92 10.16L47.92 10.16L47.92 10.16Q47.93 10.21 47.89 10.23L47.89 10.23L47.89 10.23Q47.85 10.25 47.80 10.26L47.80 10.26L47.80 10.26Q47.74 10.27 47.68 10.27L47.68 10.27L47.68 10.27Q47.62 10.28 47.58 10.29L47.58 10.29L47.58 10.29Q47.54 10.31 47.52 10.31L47.52 10.31L47.52 10.31Q47.50 10.32 47.48 10.31L47.48 10.31L47.48 10.31Q47.46 10.29 47.43 10.27L47.43 10.27L47.43 10.27Q47.40 10.24 47.35 10.20L47.35 10.20L47.35 10.20Q47.29 10.16 47.23 10.13L47.23 10.13L47.23 10.13Q47.17 10.10 47.13 10.08L47.13 10.08L47.13 10.08Q47.09 10.06 47.06 10.05L47.06 10.05L47.06 10.05Q47.02 10.03 47.02 10.00L47.02 10.00L47.02 10.00Q47.02 9.58 47.21 9.13L47.21 9.13L47.21 9.13Q47.40 8.67 47.72 8.30L47.72 8.30L47.72 8.30Q48.04 7.93 48.46 7.69L48.46 7.69L48.46 7.69Q48.88 7.45 49.35 7.45L49.35 7.45L49.35 7.45Q49.73 7.45 50.01 7.57L50.01 7.57L50.01 7.57Q50.29 7.68 50.49 7.87L50.49 7.87L50.49 7.87Q50.69 8.05 50.81 8.28L50.81 8.28L50.81 8.28Q50.94 8.50 51.01 8.73L51.01 8.73L51.01 8.73Q51.08 8.96 51.12 9.16L51.12 9.16L51.12 9.16Q51.15 9.37 51.15 9.50ZM49.92 11.39L49.92 10.71L49.92 10.71Q49.71 10.79 49.46 10.91L49.46 10.91L49.46 10.91Q49.22 11.03 48.97 11.20L48.97 11.20L48.97 11.20Q48.71 11.37 48.46 11.59L48.46 11.59L48.46 11.59Q48.21 11.81 47.99 12.07L47.99 12.07L47.99 12.07Q47.73 12.38 47.61 12.62L47.61 12.62L47.61 12.62Q47.50 12.86 47.47 13.03L47.47 13.03L47.47 13.03Q47.44 13.19 47.48 13.29L47.48 13.29L47.48 13.29Q47.52 13.38 47.58 13.41L47.58 13.41L47.58 13.41Q47.79 13.49 48.02 13.42L48.02 13.42L48.02 13.42Q48.25 13.36 48.48 13.19L48.48 13.19L48.48 13.19Q48.71 13.02 48.92 12.79L48.92 12.79L48.92 12.79Q49.14 12.55 49.33 12.30L49.33 12.30L49.33 12.30Q49.52 12.05 49.67 11.81L49.67 11.81L49.67 11.81Q49.82 11.57 49.92 11.39L49.92 11.39ZM53.61 4.38L53.61 4.38L53.61 4.38Q53.61 4.47 53.60 4.75L53.60 4.75L53.60 4.75Q53.59 5.03 53.57 5.42L53.57 5.42L53.57 5.42Q53.55 5.82 53.52 6.29L53.52 6.29L53.52 6.29Q53.50 6.75 53.47 7.22L53.47 7.22L53.47 7.22Q53.44 7.69 53.42 8.13L53.42 8.13L53.42 8.13Q53.40 8.57 53.40 8.89L53.40 8.89L53.40 8.89Q53.38 9.09 53.38 9.33L53.38 9.33L53.38 9.33Q53.38 9.57 53.38 9.84L53.38 9.84L53.38 9.84Q53.38 10.21 53.38 10.60L53.38 10.60L53.38 10.60Q53.38 10.99 53.39 11.38L53.39 11.38L53.39 11.38Q53.40 11.76 53.41 12.11L53.41 12.11L53.41 12.11Q53.42 12.46 53.42 12.74L53.42 12.74L53.42 12.74Q53.43 13.02 53.43 13.21L53.43 13.21L53.43 13.21Q53.44 13.40 53.44 13.45L53.44 13.45L53.44 13.45Q53.44 13.54 53.41 13.59L53.41 13.59L53.41 13.59Q53.38 13.64 53.33 13.66L53.33 13.66L53.33 13.66Q53.29 13.68 53.24 13.67L53.24 13.67L53.24 13.67Q53.19 13.66 53.16 13.64L53.16 13.64L53.16 13.64Q53.12 13.62 53.09 13.59L53.09 13.59L53.09 13.59Q53.07 13.56 53.05 13.55L53.05 13.55L53.05 13.55Q53.04 13.54 53.03 13.54L53.03 13.54L53.03 13.54Q53.02 13.55 53.01 13.60L53.01 13.60L53.01 13.60Q52.99 13.77 52.93 13.86L52.93 13.86L52.93 13.86Q52.88 13.95 52.81 13.98L52.81 13.98L52.81 13.98Q52.75 14.01 52.69 14L52.69 14L52.69 14Q52.64 13.99 52.62 13.95L52.62 13.95L52.62 13.95Q52.61 13.92 52.58 13.91L52.58 13.91L52.58 13.91Q52.55 13.90 52.51 13.90L52.51 13.90L52.51 13.90Q52.48 13.90 52.45 13.88L52.45 13.88L52.45 13.88Q52.42 13.86 52.41 13.81L52.41 13.81L52.41 13.81Q52.36 13.58 52.34 13.22L52.34 13.22L52.34 13.22Q52.33 12.86 52.33 12.41L52.33 12.41L52.33 12.41Q52.33 12.02 52.34 11.57L52.34 11.57L52.34 11.57Q52.34 11.12 52.34 10.64L52.34 10.64L52.34 10.64Q52.34 10.37 52.34 10.10L52.34 10.10L52.34 10.10Q52.34 9.83 52.33 9.55L52.33 9.55L52.33 9.12L52.33 9.12Q52.33 8.57 52.36 8.01L52.36 8.01L52.36 8.01Q52.38 7.45 52.42 6.94L52.42 6.94L52.42 6.94Q52.47 6.43 52.51 5.97L52.51 5.97L52.51 5.97Q52.56 5.52 52.60 5.17L52.60 5.17L52.60 5.17Q52.63 4.83 52.65 4.61L52.65 4.61L52.65 4.61Q52.67 4.39 52.66 4.33L52.66 4.33L52.66 4.33Q52.66 4.29 52.67 4.27L52.67 4.27L52.67 4.27Q52.69 4.25 52.72 4.24L52.72 4.24L52.72 4.24Q52.75 4.24 52.79 4.23L52.79 4.23L52.79 4.23Q52.82 4.23 52.85 4.22L52.85 4.22L52.85 4.22Q52.90 4.19 52.93 4.20L52.93 4.20L52.93 4.20Q52.96 4.21 52.98 4.23L52.98 4.23L52.98 4.23Q53.00 4.25 53.02 4.28L53.02 4.28L53.02 4.28Q53.03 4.30 53.07 4.30L53.07 4.30L53.07 4.30Q53.11 4.29 53.13 4.28L53.13 4.28L53.13 4.28Q53.16 4.26 53.17 4.24L53.17 4.24L53.17 4.24Q53.19 4.22 53.21 4.21L53.21 4.21L53.21 4.21Q53.22 4.20 53.25 4.20L53.25 4.20L53.25 4.20Q53.31 4.22 53.36 4.22L53.36 4.22L53.36 4.22Q53.41 4.22 53.41 4.20L53.41 4.20L53.41 4.20Q53.42 4.15 53.45 4.15L53.45 4.15L53.45 4.15Q53.48 4.16 53.52 4.19L53.52 4.19L53.52 4.19Q53.56 4.22 53.59 4.26L53.59 4.26L53.59 4.26Q53.61 4.30 53.61 4.38ZM56.38 4.58L56.38 4.58L56.38 4.58Q56.38 4.72 56.37 4.88L56.37 4.88L56.37 4.88Q56.35 5.05 56.31 5.21L56.31 5.21L56.31 5.21Q56.27 5.37 56.21 5.49L56.21 5.49L56.21 5.49Q56.14 5.61 56.05 5.66L56.05 5.66L56.05 5.66Q55.83 5.78 55.66 5.78L55.66 5.78L55.66 5.78Q55.52 5.78 55.42 5.71L55.42 5.71L55.42 5.71Q55.32 5.65 55.23 5.56L55.23 5.56L55.23 5.56Q55.09 5.46 55.00 5.28L55.00 5.28L55.00 5.28Q54.91 5.10 54.91 4.94L54.91 4.94L54.91 4.94Q54.91 4.81 54.95 4.62L54.95 4.62L54.95 4.62Q55.00 4.43 55.06 4.25L55.06 4.25L55.06 4.25Q55.13 4.07 55.21 3.93L55.21 3.93L55.21 3.93Q55.29 3.78 55.36 3.73L55.36 3.73L55.36 3.73Q55.48 3.63 55.58 3.62L55.58 3.62L55.58 3.62Q55.68 3.61 55.74 3.63L55.74 3.63L55.74 3.63Q55.89 3.66 56.01 3.72L56.01 3.72L56.01 3.72Q56.12 3.77 56.20 3.87L56.20 3.87L56.20 3.87Q56.28 3.98 56.32 4.15L56.32 4.15L56.32 4.15Q56.36 4.32 56.38 4.58ZM55.82 7.64L55.82 7.64L55.82 7.64Q55.85 7.67 55.87 7.86L55.87 7.86L55.87 7.86Q55.88 8.05 55.88 8.36L55.88 8.36L55.88 8.36Q55.88 8.57 55.88 8.80L55.88 8.80L55.88 8.80Q55.87 9.04 55.86 9.30L55.86 9.30L55.86 9.30Q55.85 9.55 55.84 9.81L55.84 9.81L55.84 9.81Q55.82 10.06 55.82 10.29L55.82 10.29L55.82 10.29Q55.79 10.68 55.79 11.00L55.79 11.00L55.79 11.00Q55.79 11.33 55.79 11.63L55.79 11.63L55.79 11.63Q55.79 12.02 55.79 12.35L55.79 12.35L55.79 12.35Q55.80 12.68 55.80 12.90L55.80 12.90L55.80 12.90Q55.80 13.14 55.78 13.27L55.78 13.27L55.78 13.27Q55.77 13.39 55.71 13.41L55.71 13.41L55.71 13.41Q55.65 13.42 55.61 13.46L55.61 13.46L55.61 13.46Q55.57 13.51 55.54 13.55L55.54 13.55L55.54 13.55Q55.50 13.59 55.46 13.62L55.46 13.62L55.46 13.62Q55.41 13.65 55.35 13.64L55.35 13.64L55.35 13.64Q55.32 13.63 55.23 13.58L55.23 13.58L55.23 13.58Q55.15 13.52 55.06 13.44L55.06 13.44L55.06 13.44Q54.97 13.36 54.89 13.26L54.89 13.26L54.89 13.26Q54.80 13.16 54.78 13.05L54.78 13.05L54.78 13.05Q54.76 13.00 54.75 12.83L54.75 12.83L54.75 12.83Q54.74 12.67 54.74 12.43L54.74 12.43L54.74 12.43Q54.73 12.20 54.72 11.92L54.72 11.92L54.72 11.92Q54.71 11.63 54.71 11.34L54.71 11.34L54.71 11.34Q54.71 11.05 54.71 10.77L54.71 10.77L54.71 10.77Q54.71 10.49 54.71 10.27L54.71 10.27L54.71 10.27Q54.71 9.92 54.73 9.56L54.73 9.56L54.73 9.56Q54.76 9.19 54.79 8.88L54.79 8.88L54.79 8.88Q54.82 8.57 54.85 8.33L54.85 8.33L54.85 8.33Q54.88 8.09 54.89 8.00L54.89 8.00L54.89 8.00Q54.92 7.83 54.95 7.74L54.95 7.74L54.95 7.74Q54.98 7.65 55.02 7.61L55.02 7.61L55.02 7.61Q55.06 7.57 55.09 7.56L55.09 7.56L55.09 7.56Q55.13 7.55 55.17 7.54L55.17 7.54L55.17 7.54Q55.25 7.53 55.36 7.53L55.36 7.53L55.36 7.53Q55.47 7.54 55.56 7.55L55.56 7.55L55.56 7.55Q55.66 7.57 55.73 7.59L55.73 7.59L55.73 7.59Q55.80 7.62 55.82 7.64ZM58.91 5.46L58.91 5.46L58.91 5.46Q58.91 5.50 58.89 5.68L58.89 5.68L58.89 5.68Q58.88 5.85 58.85 6.14L58.85 6.14L58.85 6.14Q58.83 6.43 58.80 6.81L58.80 6.81L58.80 6.81Q58.76 7.18 58.73 7.62L58.73 7.62L58.73 7.62Q59.16 7.57 59.54 7.54L59.54 7.54L59.54 7.54Q59.93 7.51 60.20 7.51L60.20 7.51L60.20 7.51Q60.29 7.51 60.35 7.54L60.35 7.54L60.35 7.54Q60.42 7.57 60.47 7.62L60.47 7.62L60.47 7.62Q60.51 7.66 60.54 7.71L60.54 7.71L60.54 7.71Q60.57 7.77 60.57 7.80L60.57 7.80L60.57 7.80Q60.57 7.83 60.58 7.86L60.58 7.86L60.58 7.86Q60.59 7.90 60.59 7.93L60.59 7.93L60.59 7.93Q60.59 8.07 60.47 8.20L60.47 8.20L60.47 8.20Q60.35 8.34 60.11 8.37L60.11 8.37L58.65 8.53L58.65 8.53Q58.62 9.02 58.59 9.54L58.59 9.54L58.59 9.54Q58.56 10.06 58.54 10.58L58.54 10.58L58.54 10.58Q58.52 11.09 58.50 11.59L58.50 11.59L58.50 11.59Q58.49 12.09 58.49 12.54L58.49 12.54L58.49 12.54Q58.49 12.82 58.50 13.00L58.50 13.00L58.50 13.00Q58.52 13.18 58.52 13.23L58.52 13.23L58.52 13.23Q58.52 13.35 58.47 13.46L58.47 13.46L58.47 13.46Q58.43 13.58 58.37 13.67L58.37 13.67L58.37 13.67Q58.31 13.76 58.25 13.82L58.25 13.82L58.25 13.82Q58.18 13.88 58.14 13.88L58.14 13.88L58.14 13.88Q57.89 13.88 57.75 13.72L57.75 13.72L57.75 13.72Q57.61 13.57 57.53 13.31L57.53 13.31L57.53 13.31Q57.46 13.05 57.44 12.71L57.44 12.71L57.44 12.71Q57.42 12.38 57.42 12.02L57.42 12.02L57.42 12.02Q57.42 11.16 57.47 10.31L57.47 10.31L57.47 10.31Q57.52 9.45 57.61 8.65L57.61 8.65L56.75 8.76L56.75 8.76Q56.73 8.76 56.71 8.76L56.71 8.76L56.71 8.76Q56.69 8.77 56.66 8.77L56.66 8.77L56.66 8.77Q56.53 8.77 56.45 8.71L56.45 8.71L56.45 8.71Q56.38 8.65 56.33 8.57L56.33 8.57L56.33 8.57Q56.29 8.48 56.28 8.40L56.28 8.40L56.28 8.40Q56.27 8.31 56.27 8.26L56.27 8.26L56.27 8.26Q56.27 8.17 56.30 8.09L56.30 8.09L56.30 8.09Q56.33 8.00 56.40 7.98L56.40 7.98L56.40 7.98Q56.55 7.93 56.91 7.86L56.91 7.86L56.91 7.86Q57.26 7.80 57.72 7.73L57.72 7.73L57.72 7.73Q57.79 7.18 57.87 6.72L57.87 6.72L57.87 6.72Q57.95 6.25 58.02 5.92L58.02 5.92L58.02 5.92Q58.10 5.58 58.16 5.39L58.16 5.39L58.16 5.39Q58.23 5.20 58.28 5.20L58.28 5.20L58.28 5.20Q58.29 5.20 58.31 5.21L58.31 5.21L58.31 5.21Q58.33 5.22 58.34 5.22L58.34 5.22L58.34 5.22Q58.39 5.22 58.41 5.17L58.41 5.17L58.41 5.17Q58.43 5.13 58.50 5.13L58.50 5.13L58.50 5.13Q58.56 5.13 58.64 5.16L58.64 5.16L58.64 5.16Q58.71 5.20 58.77 5.26L58.77 5.26L58.77 5.26Q58.82 5.31 58.86 5.37L58.86 5.37L58.86 5.37Q58.91 5.43 58.91 5.46ZM66.09 7.93L66.09 7.93L66.09 7.93Q66.07 7.96 65.95 8.16L65.95 8.16L65.95 8.16Q65.83 8.35 65.65 8.65L65.65 8.65L65.65 8.65Q65.46 8.95 65.23 9.33L65.23 9.33L65.23 9.33Q64.99 9.71 64.74 10.11L64.74 10.11L64.74 10.11Q64.49 10.52 64.24 10.92L64.24 10.92L64.24 10.92Q64.00 11.33 63.78 11.68L63.78 11.68L63.78 11.68Q63.57 12.03 63.41 12.30L63.41 12.30L63.41 12.30Q63.25 12.58 63.18 12.71L63.18 12.71L63.18 12.71Q63.10 12.85 62.97 13.14L62.97 13.14L62.97 13.14Q62.83 13.43 62.65 13.80L62.65 13.80L62.65 13.80Q62.47 14.17 62.27 14.60L62.27 14.60L62.27 14.60Q62.07 15.03 61.87 15.47L61.87 15.47L61.87 15.47Q61.67 15.90 61.48 16.31L61.48 16.31L61.48 16.31Q61.29 16.71 61.14 17.04L61.14 17.04L61.14 17.04Q61.00 17.36 60.90 17.56L60.90 17.56L60.90 17.56Q60.81 17.77 60.79 17.81L60.79 17.81L60.79 17.81Q60.73 17.97 60.68 18.01L60.68 18.01L60.68 18.01Q60.63 18.05 60.53 18.07L60.53 18.07L60.53 18.07Q60.48 18.07 60.46 18.04L60.46 18.04L60.46 18.04Q60.43 18.01 60.41 17.96L60.41 17.96L60.41 17.96Q60.39 17.91 60.37 17.87L60.37 17.87L60.37 17.87Q60.35 17.83 60.32 17.83L60.32 17.83L60.32 17.83Q60.23 17.81 60.22 17.79L60.22 17.79L60.22 17.79Q60.21 17.77 60.18 17.70L60.18 17.70L60.18 17.70Q60.16 17.67 60.14 17.67L60.14 17.67L60.14 17.67Q60.12 17.66 60.09 17.66L60.09 17.66L60.09 17.66Q60.07 17.66 60.06 17.66L60.06 17.66L60.06 17.66Q60.05 17.65 60.05 17.62L60.05 17.62L60.05 17.62Q60.07 17.50 60.08 17.38L60.08 17.38L60.08 17.38Q60.09 17.27 60.11 17.17L60.11 17.17L60.11 17.17Q60.13 17.10 60.25 16.86L60.25 16.86L60.25 16.86Q60.37 16.62 60.55 16.27L60.55 16.27L60.55 16.27Q60.72 15.93 60.95 15.51L60.95 15.51L60.95 15.51Q61.17 15.09 61.40 14.65L61.40 14.65L61.40 14.65Q61.63 14.22 61.85 13.79L61.85 13.79L61.85 13.79Q62.07 13.37 62.25 13.02L62.25 13.02L62.25 13.02Q62.16 12.83 62.01 12.53L62.01 12.53L62.01 12.53Q61.86 12.22 61.68 11.85L61.68 11.85L61.68 11.85Q61.50 11.48 61.30 11.06L61.30 11.06L61.30 11.06Q61.10 10.64 60.91 10.23L60.91 10.23L60.91 10.23Q60.72 9.82 60.54 9.44L60.54 9.44L60.54 9.44Q60.36 9.06 60.23 8.75L60.23 8.75L60.23 8.75Q60.09 8.45 60.02 8.25L60.02 8.25L60.02 8.25Q59.94 8.05 59.94 8.00L59.94 8.00L59.94 8.00Q59.95 7.92 59.98 7.89L59.98 7.89L59.98 7.89Q60.01 7.85 60.05 7.85L60.05 7.85L60.05 7.85Q60.09 7.85 60.15 7.88L60.15 7.88L60.15 7.88Q60.20 7.90 60.25 7.92L60.25 7.92L60.25 7.92Q60.33 7.95 60.41 7.98L60.41 7.98L60.41 7.98Q60.48 8.01 60.52 7.96L60.52 7.96L60.52 7.96Q60.54 7.90 60.63 7.90L60.63 7.90L60.63 7.90Q60.73 7.90 60.79 7.93L60.79 7.93L60.79 7.93Q60.81 7.95 60.83 7.94L60.83 7.94L60.83 7.94Q60.85 7.94 60.86 7.92L60.86 7.92L60.86 7.92Q60.88 7.90 60.90 7.87L60.90 7.87L60.90 7.87Q60.93 7.85 60.96 7.83L60.96 7.83L60.96 7.83Q61.04 7.82 61.10 7.86L61.10 7.86L61.10 7.86Q61.16 7.90 61.22 8.04L61.22 8.04L61.22 8.04Q61.25 8.14 61.36 8.39L61.36 8.39L61.36 8.39Q61.46 8.65 61.61 8.98L61.61 8.98L61.61 8.98Q61.76 9.32 61.93 9.70L61.93 9.70L61.93 9.70Q62.11 10.09 62.29 10.46L62.29 10.46L62.29 10.46Q62.47 10.83 62.63 11.16L62.63 11.16L62.63 11.16Q62.79 11.49 62.91 11.71L62.91 11.71L62.91 11.71Q63.10 11.37 63.31 10.98L63.31 10.98L63.31 10.98Q63.53 10.60 63.75 10.21L63.75 10.21L63.75 10.21Q63.97 9.82 64.19 9.45L64.19 9.45L64.19 9.45Q64.41 9.08 64.60 8.77L64.60 8.77L64.60 8.77Q64.80 8.46 64.95 8.22L64.95 8.22L64.95 8.22Q65.10 7.98 65.19 7.86L65.19 7.86L65.19 7.86Q65.25 7.79 65.25 7.77L65.25 7.77L65.25 7.77Q65.25 7.75 65.30 7.73L65.30 7.73L65.30 7.73Q65.34 7.72 65.38 7.70L65.38 7.70L65.38 7.70Q65.41 7.69 65.47 7.70L65.47 7.70L65.47 7.70Q65.54 7.72 65.57 7.72L65.57 7.72L65.57 7.72Q65.60 7.72 65.63 7.76L65.63 7.76L65.63 7.76Q65.64 7.78 65.67 7.77L65.67 7.77L65.67 7.77Q65.69 7.77 65.73 7.75L65.73 7.75L65.73 7.75Q65.77 7.73 65.81 7.71L65.81 7.71L65.81 7.71Q65.85 7.70 65.89 7.70L65.89 7.70L65.89 7.70Q65.94 7.71 65.99 7.72L65.99 7.72L65.99 7.72Q66.04 7.73 66.07 7.76L66.07 7.76L66.07 7.76Q66.11 7.79 66.12 7.83L66.12 7.83L66.12 7.83Q66.12 7.87 66.09 7.93ZM76.21 6.08L76.21 6.08L76.21 6.08Q76.21 6.47 76.08 6.87L76.08 6.87L76.08 6.87Q75.96 7.27 75.73 7.64L75.73 7.64L75.73 7.64Q75.49 8.00 75.16 8.33L75.16 8.33L75.16 8.33Q74.83 8.66 74.42 8.91L74.42 8.91L74.42 8.91Q74.01 9.16 73.54 9.32L73.54 9.32L73.54 9.32Q73.07 9.47 72.56 9.51L72.56 9.51L72.56 9.51Q72.46 9.52 72.37 9.51L72.37 9.51L72.37 9.51Q72.28 9.49 72.20 9.47L72.20 9.47L72.20 9.47Q72.15 9.45 72.05 9.41L72.05 9.41L72.05 9.41Q71.95 9.37 71.92 9.34L71.92 9.34L71.92 9.34Q71.88 9.30 71.81 9.22L71.81 9.22L71.81 9.22Q71.74 9.13 71.70 9.08L71.70 9.08L71.70 9.08Q71.68 9.04 71.69 8.97L71.69 8.97L71.69 8.97Q71.69 8.89 71.69 8.78L71.69 8.78L71.69 8.78Q71.69 8.69 71.69 8.58L71.69 8.58L71.69 8.58Q71.68 8.48 71.70 8.46L71.70 8.46L71.70 8.46Q71.72 8.45 71.77 8.49L71.77 8.49L71.77 8.49Q71.82 8.52 71.97 8.54L71.97 8.54L71.97 8.54Q72.03 8.56 72.11 8.55L72.11 8.55L72.11 8.55Q72.19 8.54 72.26 8.53L72.26 8.53L72.26 8.53Q72.50 8.51 72.82 8.39L72.82 8.39L72.82 8.39Q73.13 8.28 73.46 8.09L73.46 8.09L73.46 8.09Q73.79 7.90 74.12 7.64L74.12 7.64L74.12 7.64Q74.44 7.38 74.69 7.09L74.69 7.09L74.69 7.09Q74.94 6.79 75.09 6.47L75.09 6.47L75.09 6.47Q75.24 6.14 75.24 5.80L75.24 5.80L75.24 5.80Q75.24 5.54 75.14 5.30L75.14 5.30L75.14 5.30Q75.04 5.06 74.82 4.82L74.82 4.82L74.82 4.82Q74.68 4.66 74.29 4.57L74.29 4.57L74.29 4.57Q73.89 4.48 73.34 4.48L73.34 4.48L73.34 4.48Q72.86 4.48 72.32 4.56L72.32 4.56L72.32 4.56Q71.78 4.63 71.25 4.81L71.25 4.81L71.25 4.81Q70.79 4.96 70.47 5.07L70.47 5.07L70.47 5.07Q70.15 5.18 69.92 5.27L69.92 5.27L69.92 5.27Q69.69 5.36 69.55 5.42L69.55 5.42L69.55 5.42Q69.40 5.48 69.29 5.53L69.29 5.53L69.29 5.53Q69.18 5.57 69.09 5.61L69.09 5.61L69.09 5.61Q69.00 5.65 68.90 5.67L68.90 5.67L68.90 5.67Q68.80 5.71 68.75 5.71L68.75 5.71L68.75 5.71Q68.69 5.71 68.66 5.71L68.66 5.71L68.66 5.71Q68.61 5.70 68.58 5.68L68.58 5.68L68.58 5.68Q68.56 5.67 68.52 5.65L68.52 5.65L68.52 5.65Q68.50 5.63 68.47 5.63L68.47 5.63L68.47 5.63Q68.44 5.63 68.42 5.64L68.42 5.64L68.42 5.64Q68.39 5.65 68.37 5.64L68.37 5.64L68.37 5.64Q68.34 5.63 68.31 5.59L68.31 5.59L68.31 5.59Q68.27 5.52 68.25 5.47L68.25 5.47L68.25 5.47Q68.24 5.43 68.23 5.40L68.23 5.40L68.23 5.40Q68.23 5.37 68.24 5.34L68.24 5.34L68.24 5.34Q68.24 5.31 68.26 5.27L68.26 5.27L68.26 5.27Q68.26 5.23 68.26 5.20L68.26 5.20L68.26 5.20Q68.25 5.16 68.25 5.13L68.25 5.13L68.25 5.13Q68.24 5.11 68.25 5.08L68.25 5.08L68.25 5.08Q68.26 5.04 68.31 5.00L68.31 5.00L68.31 5.00Q68.41 4.93 68.63 4.77L68.63 4.77L68.63 4.77Q68.84 4.61 69.17 4.43L69.17 4.43L69.17 4.43Q69.49 4.24 69.91 4.04L69.91 4.04L69.91 4.04Q70.33 3.84 70.83 3.67L70.83 3.67L70.83 3.67Q71.33 3.51 71.89 3.39L71.89 3.39L71.89 3.39Q72.45 3.28 73.07 3.27L73.07 3.27L73.07 3.27Q73.68 3.25 74.15 3.40L74.15 3.40L74.15 3.40Q74.62 3.55 74.97 3.79L74.97 3.79L74.97 3.79Q75.32 4.03 75.55 4.34L75.55 4.34L75.55 4.34Q75.79 4.66 75.93 4.97L75.93 4.97L75.93 4.97Q76.08 5.28 76.14 5.58L76.14 5.58L76.14 5.58Q76.20 5.87 76.21 6.08ZM71.52 5.17L71.52 5.17L71.52 5.17Q71.51 5.20 71.49 5.40L71.49 5.40L71.49 5.40Q71.48 5.60 71.45 5.91L71.45 5.91L71.45 5.91Q71.43 6.22 71.40 6.62L71.40 6.62L71.40 6.62Q71.37 7.01 71.35 7.44L71.35 7.44L71.35 7.44Q71.32 7.88 71.30 8.32L71.30 8.32L71.30 8.32Q71.27 8.76 71.26 9.16L71.26 9.16L71.26 9.16Q71.25 9.57 71.24 10.00L71.24 10.00L71.24 10.00Q71.24 10.44 71.24 10.88L71.24 10.88L71.24 10.88Q71.24 11.40 71.26 11.89L71.26 11.89L71.26 11.89Q71.29 12.39 71.35 12.86L71.35 12.86L71.35 12.86Q71.37 13.02 71.33 13.10L71.33 13.10L71.33 13.10Q71.28 13.19 71.28 13.26L71.28 13.26L71.28 13.26Q71.28 13.28 71.30 13.30L71.30 13.30L71.30 13.30Q71.32 13.32 71.31 13.33L71.31 13.33L71.31 13.33Q71.29 13.36 71.23 13.36L71.23 13.36L71.23 13.36Q71.18 13.35 71.14 13.32L71.14 13.32L71.14 13.32Q71.12 13.30 71.11 13.27L71.11 13.27L71.11 13.27Q71.09 13.23 71.08 13.21L71.08 13.21L71.08 13.21Q71.07 13.19 71.05 13.19L71.05 13.19L71.05 13.19Q71.03 13.19 70.98 13.22L70.98 13.22L70.98 13.22Q70.95 13.25 70.91 13.32L70.91 13.32L70.91 13.32Q70.86 13.38 70.81 13.44L70.81 13.44L70.81 13.44Q70.77 13.51 70.72 13.56L70.72 13.56L70.72 13.56Q70.67 13.61 70.62 13.62L70.62 13.62L70.62 13.62Q70.58 13.64 70.52 13.65L70.52 13.65L70.52 13.65Q70.46 13.67 70.45 13.61L70.45 13.61L70.45 13.61Q70.44 13.58 70.42 13.58L70.42 13.58L70.42 13.58Q70.41 13.57 70.39 13.56L70.39 13.56L70.39 13.56Q70.37 13.55 70.35 13.53L70.35 13.53L70.35 13.53Q70.33 13.51 70.33 13.46L70.33 13.46L70.33 13.46Q70.29 13.34 70.25 13.29L70.25 13.29L70.25 13.29Q70.21 13.23 70.21 13.15L70.21 13.15L70.21 13.15Q70.19 13.04 70.14 12.48L70.14 12.48L70.14 12.48Q70.09 11.93 70.09 10.95L70.09 10.95L70.09 10.95Q70.09 10.56 70.10 10.10L70.10 10.10L70.10 10.10Q70.11 9.65 70.14 9.13L70.14 9.13L70.14 9.13Q70.18 8.67 70.23 8.14L70.23 8.14L70.23 8.14Q70.27 7.61 70.32 7.10L70.32 7.10L70.32 7.10Q70.38 6.58 70.42 6.14L70.42 6.14L70.42 6.14Q70.46 5.69 70.48 5.41L70.48 5.41L70.48 5.41Q70.49 5.36 70.51 5.35L70.51 5.35L70.51 5.35Q70.54 5.33 70.59 5.33L70.59 5.33L70.59 5.33Q70.64 5.32 70.71 5.31L70.71 5.31L70.71 5.31Q70.79 5.30 70.89 5.26L70.89 5.26L70.89 5.26Q70.97 5.22 71.08 5.17L71.08 5.17L71.08 5.17Q71.20 5.13 71.30 5.11L71.30 5.11L71.30 5.11Q71.39 5.09 71.46 5.09L71.46 5.09L71.46 5.09Q71.52 5.10 71.52 5.17ZM79.52 8.59L79.52 8.59L79.52 8.59Q79.52 8.78 79.48 8.98L79.48 8.98L79.48 8.98Q79.45 9.17 79.40 9.35L79.40 9.35L79.40 9.35Q79.34 9.52 79.27 9.66L79.27 9.66L79.27 9.66Q79.19 9.80 79.09 9.88L79.09 9.88L79.09 9.88Q79.01 9.95 78.96 9.95L78.96 9.95L78.96 9.95Q78.91 9.95 78.88 9.92L78.88 9.92L78.88 9.92Q78.85 9.89 78.83 9.86L78.83 9.86L78.83 9.86Q78.81 9.82 78.78 9.82L78.78 9.82L78.78 9.82Q78.75 9.81 78.71 9.82L78.71 9.82L78.71 9.82Q78.66 9.83 78.62 9.82L78.62 9.82L78.62 9.82Q78.57 9.82 78.53 9.77L78.53 9.77L78.53 9.77Q78.50 9.73 78.48 9.61L78.48 9.61L78.48 9.61Q78.47 9.48 78.49 9.27L78.49 9.27L78.49 9.27Q78.52 9.06 78.52 8.87L78.52 8.87L78.52 8.87Q78.52 8.69 78.48 8.57L78.48 8.57L78.48 8.57Q78.44 8.45 78.35 8.45L78.35 8.45L78.35 8.45Q78.30 8.45 78.18 8.52L78.18 8.52L78.18 8.52Q78.06 8.59 77.92 8.83L77.92 8.83L77.92 8.83Q77.77 9.06 77.63 9.50L77.63 9.50L77.63 9.50Q77.49 9.94 77.40 10.67L77.40 10.67L77.40 10.67Q77.40 11.61 77.41 12.19L77.41 12.19L77.41 12.19Q77.42 12.76 77.42 13.08L77.42 13.08L77.42 13.08Q77.42 13.36 77.41 13.47L77.41 13.47L77.41 13.47Q77.40 13.59 77.34 13.62L77.34 13.62L77.34 13.62Q77.31 13.64 77.21 13.68L77.21 13.68L77.21 13.68Q77.11 13.71 77.00 13.73L77.00 13.73L77.00 13.73Q76.88 13.76 76.78 13.78L76.78 13.78L76.78 13.78Q76.68 13.80 76.65 13.79L76.65 13.79L76.65 13.79Q76.63 13.79 76.58 13.75L76.58 13.75L76.58 13.75Q76.52 13.71 76.46 13.66L76.46 13.66L76.46 13.66Q76.41 13.60 76.36 13.55L76.36 13.55L76.36 13.55Q76.31 13.49 76.30 13.45L76.30 13.45L76.30 13.45Q76.29 13.38 76.29 13.14L76.29 13.14L76.29 13.14Q76.30 12.89 76.30 12.55L76.30 12.55L76.30 12.55Q76.30 12.21 76.31 11.80L76.31 11.80L76.31 11.80Q76.32 11.40 76.32 10.99L76.32 10.99L76.32 10.99Q76.32 10.73 76.33 10.41L76.33 10.41L76.33 10.41Q76.35 10.10 76.37 9.77L76.37 9.77L76.37 9.77Q76.40 9.44 76.43 9.13L76.43 9.13L76.43 9.13Q76.45 8.81 76.48 8.56L76.48 8.56L76.48 8.56Q76.50 8.31 76.52 8.15L76.52 8.15L76.52 8.15Q76.54 7.98 76.54 7.94L76.54 7.94L76.54 7.94Q76.55 7.89 76.59 7.90L76.59 7.90L76.59 7.90Q76.64 7.92 76.69 7.95L76.69 7.95L76.69 7.95Q76.74 7.98 76.78 8.01L76.78 8.01L76.78 8.01Q76.82 8.04 76.84 8.01L76.84 8.01L76.84 8.01Q76.85 7.95 76.94 7.99L76.94 7.99L76.94 7.99Q77.03 8.04 77.10 8.09L77.10 8.09L77.10 8.09Q77.13 8.13 77.17 8.15L77.17 8.15L77.17 8.15Q77.21 8.18 77.24 8.21L77.24 8.21L77.24 8.21Q77.27 8.25 77.30 8.31L77.30 8.31L77.30 8.31Q77.32 8.37 77.32 8.48L77.32 8.48L77.32 8.48Q77.32 8.57 77.33 8.76L77.33 8.76L77.33 8.76Q77.35 8.96 77.37 9.21L77.37 9.21L77.37 9.21Q77.44 8.97 77.55 8.70L77.55 8.70L77.55 8.70Q77.66 8.42 77.81 8.19L77.81 8.19L77.81 8.19Q77.96 7.96 78.16 7.81L78.16 7.81L78.16 7.81Q78.37 7.66 78.65 7.66L78.65 7.66L78.65 7.66Q78.81 7.66 78.97 7.72L78.97 7.72L78.97 7.72Q79.13 7.79 79.25 7.91L79.25 7.91L79.25 7.91Q79.38 8.03 79.45 8.20L79.45 8.20L79.45 8.20Q79.53 8.37 79.52 8.59ZM84.48 11.01L84.48 11.01L84.48 11.01Q84.48 11.08 84.49 11.18L84.49 11.18L84.49 11.18Q84.49 11.29 84.49 11.42L84.49 11.42L84.49 11.42Q84.49 11.58 84.44 11.82L84.44 11.82L84.44 11.82Q84.40 12.07 84.29 12.33L84.29 12.33L84.29 12.33Q84.18 12.60 84.01 12.87L84.01 12.87L84.01 12.87Q83.83 13.13 83.57 13.34L83.57 13.34L83.57 13.34Q83.31 13.56 82.96 13.69L82.96 13.69L82.96 13.69Q82.61 13.82 82.15 13.82L82.15 13.82L82.15 13.82Q81.75 13.82 81.33 13.67L81.33 13.67L81.33 13.67Q80.91 13.51 80.56 13.19L80.56 13.19L80.56 13.19Q80.22 12.87 80.00 12.36L80.00 12.36L80.00 12.36Q79.78 11.86 79.78 11.16L79.78 11.16L79.78 11.16Q79.78 10.73 79.89 10.30L79.89 10.30L79.89 10.30Q80.00 9.88 80.19 9.50L80.19 9.50L80.19 9.50Q80.38 9.13 80.63 8.81L80.63 8.81L80.63 8.81Q80.89 8.49 81.17 8.26L81.17 8.26L81.17 8.26Q81.46 8.03 81.76 7.90L81.76 7.90L81.76 7.90Q82.07 7.77 82.35 7.77L82.35 7.77L82.35 7.77Q82.85 7.77 83.18 7.93L83.18 7.93L83.18 7.93Q83.50 8.09 83.69 8.32L83.69 8.32L83.69 8.32Q83.88 8.55 83.96 8.81L83.96 8.81L83.96 8.81Q84.04 9.08 84.04 9.29L84.04 9.29L84.04 9.29Q84.04 9.50 83.94 9.76L83.94 9.76L83.94 9.76Q83.84 10.02 83.62 10.26L83.62 10.26L83.62 10.26Q83.39 10.49 83.03 10.65L83.03 10.65L83.03 10.65Q82.67 10.81 82.14 10.81L82.14 10.81L82.14 10.81Q81.86 10.81 81.64 10.74L81.64 10.74L81.64 10.74Q81.42 10.66 81.25 10.54L81.25 10.54L81.25 10.54Q81.07 10.42 80.95 10.28L80.95 10.28L80.95 10.28Q80.83 10.14 80.75 10.01L80.75 10.01L80.75 10.01Q80.63 10.44 80.63 11.01L80.63 11.01L80.63 11.01Q80.63 11.40 80.74 11.71L80.74 11.71L80.74 11.71Q80.86 12.02 81.05 12.24L81.05 12.24L81.05 12.24Q81.25 12.46 81.53 12.57L81.53 12.57L81.53 12.57Q81.80 12.69 82.13 12.69L82.13 12.69L82.13 12.69Q82.54 12.69 82.84 12.55L82.84 12.55L82.84 12.55Q83.15 12.41 83.38 12.20L83.38 12.20L83.38 12.20Q83.61 11.98 83.78 11.73L83.78 11.73L83.78 11.73Q83.95 11.48 84.07 11.28L84.07 11.28L84.07 11.28Q84.19 11.07 84.28 10.93L84.28 10.93L84.28 10.93Q84.38 10.79 84.46 10.80L84.46 10.80L84.46 10.80Q84.51 10.80 84.51 10.87L84.51 10.87L84.51 10.87Q84.51 10.90 84.50 10.94L84.50 10.94L84.50 10.94Q84.49 10.97 84.48 11.01ZM82.42 8.46L82.42 8.46L82.42 8.46Q82.30 8.46 82.10 8.51L82.10 8.51L82.10 8.51Q81.91 8.57 81.69 8.70L81.69 8.70L81.69 8.70Q81.48 8.83 81.27 9.05L81.27 9.05L81.27 9.05Q81.05 9.27 80.90 9.61L80.90 9.61L80.90 9.61Q80.99 9.56 81.06 9.53L81.06 9.53L81.06 9.53Q81.14 9.50 81.16 9.50L81.16 9.50L81.16 9.50Q81.18 9.50 81.20 9.52L81.20 9.52L81.20 9.52Q81.36 9.79 81.60 9.90L81.60 9.90L81.60 9.90Q81.83 10.01 82.13 10.01L82.13 10.01L82.13 10.01Q82.36 10.01 82.53 9.94L82.53 9.94L82.53 9.94Q82.69 9.86 82.80 9.73L82.80 9.73L82.80 9.73Q82.91 9.61 82.96 9.46L82.96 9.46L82.96 9.46Q83.01 9.32 83.01 9.17L83.01 9.17L83.01 9.17Q83.01 8.87 82.85 8.66L82.85 8.66L82.85 8.66Q82.69 8.46 82.42 8.46ZM91.18 4.86L91.18 4.86L91.18 4.86Q91.17 5.00 91.14 5.29L91.14 5.29L91.14 5.29Q91.10 5.58 91.05 5.97L91.05 5.97L91.05 5.97Q91 6.36 90.95 6.85L90.95 6.85L90.95 6.85Q90.89 7.33 90.84 7.86L90.84 7.86L90.84 7.86Q90.79 8.39 90.76 8.94L90.76 8.94L90.76 8.94Q90.73 9.50 90.73 10.06L90.73 10.06L90.73 10.06Q90.73 10.34 90.75 10.71L90.75 10.71L90.75 10.71Q90.76 11.07 90.78 11.44L90.78 11.44L90.78 11.44Q90.79 11.81 90.82 12.17L90.82 12.17L90.82 12.17Q90.84 12.53 90.85 12.82L90.85 12.82L90.85 12.82Q90.86 13.10 90.86 13.29L90.86 13.29L90.86 13.29Q90.86 13.47 90.84 13.50L90.84 13.50L90.84 13.50Q90.81 13.54 90.75 13.54L90.75 13.54L90.75 13.54Q90.70 13.54 90.64 13.52L90.64 13.52L90.64 13.52Q90.59 13.51 90.54 13.51L90.54 13.51L90.54 13.51Q90.49 13.50 90.47 13.53L90.47 13.53L90.47 13.53Q90.45 13.56 90.42 13.60L90.42 13.60L90.42 13.60Q90.38 13.64 90.34 13.67L90.34 13.67L90.34 13.67Q90.30 13.70 90.23 13.71L90.23 13.71L90.23 13.71Q90.17 13.73 90.10 13.70L90.10 13.70L90.10 13.70Q89.99 13.63 89.89 13.50L89.89 13.50L89.89 13.50Q89.79 13.38 89.77 13.18L89.77 13.18L89.77 13.18Q89.75 13.04 89.74 12.86L89.74 12.86L89.74 12.86Q89.73 12.67 89.72 12.46L89.72 12.46L89.72 12.46Q89.71 12.24 89.71 12.01L89.71 12.01L89.71 12.01Q89.71 11.79 89.71 11.57L89.71 11.57L89.71 11.57Q89.54 12.02 89.32 12.38L89.32 12.38L89.32 12.38Q89.09 12.74 88.83 13.00L88.83 13.00L88.83 13.00Q88.57 13.25 88.28 13.42L88.28 13.42L88.28 13.42Q87.99 13.58 87.71 13.64L87.71 13.64L87.71 13.64Q87.34 13.71 86.94 13.63L86.94 13.63L86.94 13.63Q86.54 13.54 86.20 13.34L86.20 13.34L86.20 13.34Q85.85 13.14 85.60 12.84L85.60 12.84L85.60 12.84Q85.35 12.54 85.27 12.18L85.27 12.18L85.27 12.18Q85.22 11.93 85.20 11.69L85.20 11.69L85.20 11.69Q85.18 11.45 85.18 11.23L85.18 11.23L85.18 11.23Q85.18 10.65 85.32 10.18L85.32 10.18L85.32 10.18Q85.46 9.71 85.69 9.33L85.69 9.33L85.69 9.33Q85.91 8.96 86.18 8.69L86.18 8.69L86.18 8.69Q86.45 8.42 86.71 8.23L86.71 8.23L86.71 8.23Q86.96 8.05 87.16 7.95L87.16 7.95L87.16 7.95Q87.36 7.85 87.45 7.83L87.45 7.83L87.45 7.83Q87.61 7.79 87.77 7.77L87.77 7.77L87.77 7.77Q87.94 7.76 88.09 7.76L88.09 7.76L88.09 7.76Q88.39 7.76 88.65 7.82L88.65 7.82L88.65 7.82Q88.91 7.88 89.12 7.98L89.12 7.98L89.12 7.98Q89.34 8.07 89.51 8.19L89.51 8.19L89.51 8.19Q89.67 8.31 89.80 8.41L89.80 8.41L89.80 8.41Q89.82 8.00 89.84 7.59L89.84 7.59L89.84 7.59Q89.86 7.18 89.88 6.81L89.88 6.81L89.88 6.81Q89.91 6.44 89.93 6.13L89.93 6.13L89.93 6.13Q89.95 5.81 89.99 5.59L89.99 5.59L89.99 5.59Q90.04 5.22 90.09 4.96L90.09 4.96L90.09 4.96Q90.15 4.69 90.20 4.49L90.20 4.49L90.20 4.49Q90.25 4.30 90.30 4.16L90.30 4.16L90.30 4.16Q90.35 4.03 90.40 3.92L90.40 3.92L90.40 3.92Q90.43 3.90 90.49 3.89L90.49 3.89L90.49 3.89Q90.56 3.89 90.64 3.91L90.64 3.91L90.64 3.91Q90.72 3.92 90.81 3.96L90.81 3.96L90.81 3.96Q90.90 3.99 90.97 4.04L90.97 4.04L90.97 4.04Q91.04 4.09 91.09 4.14L91.09 4.14L91.09 4.14Q91.14 4.20 91.16 4.29L91.16 4.29L91.16 4.29Q91.19 4.38 91.19 4.51L91.19 4.51L91.19 4.51Q91.20 4.65 91.18 4.86ZM89.69 9.37L89.69 9.37L89.69 9.37Q89.69 9.28 89.70 9.18L89.70 9.18L89.70 9.18Q89.71 9.07 89.72 8.98L89.72 8.98L89.72 8.98Q89.67 9.02 89.62 9.06L89.62 9.06L89.62 9.06Q89.58 9.10 89.56 9.13L89.56 9.13L89.56 9.13Q89.41 9.30 89.35 9.32L89.35 9.32L89.35 9.32Q89.30 9.34 89.24 9.28L89.24 9.28L89.24 9.28Q88.77 8.81 88.34 8.64L88.34 8.64L88.34 8.64Q87.92 8.48 87.57 8.48L87.57 8.48L87.57 8.48Q87.34 8.48 87.16 8.53L87.16 8.53L87.16 8.53Q86.99 8.58 86.88 8.64L86.88 8.64L86.88 8.64Q86.70 8.75 86.55 8.97L86.55 8.97L86.55 8.97Q86.40 9.19 86.29 9.48L86.29 9.48L86.29 9.48Q86.19 9.77 86.13 10.10L86.13 10.10L86.13 10.10Q86.07 10.43 86.07 10.76L86.07 10.76L86.07 10.76Q86.07 11.11 86.14 11.43L86.14 11.43L86.14 11.43Q86.21 11.75 86.37 12.00L86.37 12.00L86.37 12.00Q86.53 12.24 86.78 12.38L86.78 12.38L86.78 12.38Q87.04 12.52 87.40 12.51L87.40 12.51L87.40 12.51Q87.79 12.49 88.12 12.32L88.12 12.32L88.12 12.32Q88.44 12.15 88.70 11.88L88.70 11.88L88.70 11.88Q88.96 11.61 89.14 11.28L89.14 11.28L89.14 11.28Q89.33 10.94 89.45 10.60L89.45 10.60L89.45 10.60Q89.57 10.26 89.63 9.94L89.63 9.94L89.63 9.94Q89.69 9.62 89.69 9.37ZM93.83 4.58L93.83 4.58L93.83 4.58Q93.84 4.72 93.82 4.88L93.82 4.88L93.82 4.88Q93.80 5.05 93.77 5.21L93.77 5.21L93.77 5.21Q93.73 5.37 93.66 5.49L93.66 5.49L93.66 5.49Q93.60 5.61 93.51 5.66L93.51 5.66L93.51 5.66Q93.28 5.78 93.11 5.78L93.11 5.78L93.11 5.78Q92.98 5.78 92.88 5.71L92.88 5.71L92.88 5.71Q92.78 5.65 92.68 5.56L92.68 5.56L92.68 5.56Q92.54 5.46 92.45 5.28L92.45 5.28L92.45 5.28Q92.36 5.10 92.36 4.94L92.36 4.94L92.36 4.94Q92.36 4.81 92.40 4.62L92.40 4.62L92.40 4.62Q92.45 4.43 92.52 4.25L92.52 4.25L92.52 4.25Q92.59 4.07 92.66 3.93L92.66 3.93L92.66 3.93Q92.74 3.78 92.82 3.73L92.82 3.73L92.82 3.73Q92.93 3.63 93.03 3.62L93.03 3.62L93.03 3.62Q93.13 3.61 93.19 3.63L93.19 3.63L93.19 3.63Q93.34 3.66 93.46 3.72L93.46 3.72L93.46 3.72Q93.58 3.77 93.66 3.87L93.66 3.87L93.66 3.87Q93.73 3.98 93.78 4.15L93.78 4.15L93.78 4.15Q93.82 4.32 93.83 4.58ZM93.27 7.64L93.27 7.64L93.27 7.64Q93.30 7.67 93.32 7.86L93.32 7.86L93.32 7.86Q93.34 8.05 93.34 8.36L93.34 8.36L93.34 8.36Q93.34 8.57 93.33 8.80L93.33 8.80L93.33 8.80Q93.32 9.04 93.31 9.30L93.31 9.30L93.31 9.30Q93.30 9.55 93.29 9.81L93.29 9.81L93.29 9.81Q93.28 10.06 93.27 10.29L93.27 10.29L93.27 10.29Q93.25 10.68 93.25 11.00L93.25 11.00L93.25 11.00Q93.24 11.33 93.24 11.63L93.24 11.63L93.24 11.63Q93.24 12.02 93.25 12.35L93.25 12.35L93.25 12.35Q93.26 12.68 93.26 12.90L93.26 12.90L93.26 12.90Q93.26 13.14 93.24 13.27L93.24 13.27L93.24 13.27Q93.22 13.39 93.17 13.41L93.17 13.41L93.17 13.41Q93.11 13.42 93.06 13.46L93.06 13.46L93.06 13.46Q93.02 13.51 92.99 13.55L92.99 13.55L92.99 13.55Q92.96 13.59 92.91 13.62L92.91 13.62L92.91 13.62Q92.87 13.65 92.80 13.64L92.80 13.64L92.80 13.64Q92.77 13.63 92.69 13.58L92.69 13.58L92.69 13.58Q92.61 13.52 92.51 13.44L92.51 13.44L92.51 13.44Q92.42 13.36 92.34 13.26L92.34 13.26L92.34 13.26Q92.26 13.16 92.23 13.05L92.23 13.05L92.23 13.05Q92.22 13.00 92.21 12.83L92.21 12.83L92.21 12.83Q92.20 12.67 92.19 12.43L92.19 12.43L92.19 12.43Q92.18 12.20 92.18 11.92L92.18 11.92L92.18 11.92Q92.17 11.63 92.17 11.34L92.17 11.34L92.17 11.34Q92.16 11.05 92.16 10.77L92.16 10.77L92.16 10.77Q92.16 10.49 92.16 10.27L92.16 10.27L92.16 10.27Q92.16 9.92 92.19 9.56L92.19 9.56L92.19 9.56Q92.21 9.19 92.24 8.88L92.24 8.88L92.24 8.88Q92.27 8.57 92.30 8.33L92.30 8.33L92.30 8.33Q92.33 8.09 92.35 8.00L92.35 8.00L92.35 8.00Q92.37 7.83 92.40 7.74L92.40 7.74L92.40 7.74Q92.44 7.65 92.47 7.61L92.47 7.61L92.47 7.61Q92.51 7.57 92.55 7.56L92.55 7.56L92.55 7.56Q92.59 7.55 92.63 7.54L92.63 7.54L92.63 7.54Q92.71 7.53 92.81 7.53L92.81 7.53L92.81 7.53Q92.92 7.54 93.02 7.55L93.02 7.55L93.02 7.55Q93.11 7.57 93.18 7.59L93.18 7.59L93.18 7.59Q93.26 7.62 93.27 7.64ZM99.18 11.40L99.18 11.40L99.18 11.40Q99.18 11.79 99.00 12.20L99.00 12.20L99.00 12.20Q98.83 12.60 98.52 12.93L98.52 12.93L98.52 12.93Q98.21 13.26 97.77 13.47L97.77 13.47L97.77 13.47Q97.32 13.69 96.77 13.69L96.77 13.69L96.77 13.69Q96.32 13.69 95.86 13.49L95.86 13.49L95.86 13.49Q95.40 13.30 95.03 12.94L95.03 12.94L95.03 12.94Q94.66 12.58 94.42 12.07L94.42 12.07L94.42 12.07Q94.19 11.56 94.19 10.92L94.19 10.92L94.19 10.92Q94.19 10.29 94.44 9.73L94.44 9.73L94.44 9.73Q94.68 9.17 95.07 8.75L95.07 8.75L95.07 8.75Q95.47 8.33 95.98 8.08L95.98 8.08L95.98 8.08Q96.49 7.83 97.03 7.83L97.03 7.83L97.03 7.83Q97.53 7.83 97.87 7.97L97.87 7.97L97.87 7.97Q98.22 8.10 98.43 8.28L98.43 8.28L98.43 8.28Q98.64 8.46 98.73 8.65L98.73 8.65L98.73 8.65Q98.83 8.85 98.83 8.96L98.83 8.96L98.83 8.96Q98.83 9.22 98.72 9.39L98.72 9.39L98.72 9.39Q98.61 9.55 98.47 9.63L98.47 9.63L98.47 9.63Q98.33 9.71 98.20 9.72L98.20 9.72L98.20 9.72Q98.08 9.73 98.04 9.68L98.04 9.68L98.04 9.68Q98.01 9.65 97.98 9.65L97.98 9.65L97.98 9.65Q97.95 9.65 97.92 9.67L97.92 9.67L97.92 9.67Q97.88 9.68 97.85 9.69L97.85 9.69L97.85 9.69Q97.82 9.71 97.80 9.69L97.80 9.69L97.80 9.69Q97.77 9.68 97.80 9.63L97.80 9.63L97.80 9.63Q97.83 9.58 97.83 9.55L97.83 9.55L97.83 9.55Q97.83 9.49 97.83 9.41L97.83 9.41L97.83 9.41Q97.82 9.33 97.86 9.24L97.86 9.24L97.86 9.24Q97.92 9.12 97.91 8.97L97.91 8.97L97.91 8.97Q97.90 8.83 97.81 8.70L97.81 8.70L97.81 8.70Q97.71 8.57 97.52 8.48L97.52 8.48L97.52 8.48Q97.32 8.39 97.02 8.39L97.02 8.39L97.02 8.39Q96.80 8.39 96.50 8.53L96.50 8.53L96.50 8.53Q96.20 8.67 95.93 8.98L95.93 8.98L95.93 8.98Q95.66 9.28 95.47 9.75L95.47 9.75L95.47 9.75Q95.28 10.22 95.28 10.87L95.28 10.87L95.28 10.87Q95.28 11.15 95.35 11.46L95.35 11.46L95.35 11.46Q95.42 11.76 95.61 12.02L95.61 12.02L95.61 12.02Q95.79 12.28 96.11 12.45L96.11 12.45L96.11 12.45Q96.42 12.62 96.91 12.62L96.91 12.62L96.91 12.62Q97.23 12.62 97.50 12.53L97.50 12.53L97.50 12.53Q97.77 12.44 97.99 12.30L97.99 12.30L97.99 12.30Q98.21 12.17 98.38 12.00L98.38 12.00L98.38 12.00Q98.55 11.84 98.66 11.69L98.66 11.69L98.66 11.69Q98.78 11.55 98.84 11.44L98.84 11.44L98.84 11.44Q98.91 11.33 98.92 11.30L98.92 11.30L98.92 11.30Q98.95 11.27 98.99 11.25L98.99 11.25L98.99 11.25Q99.03 11.23 99.07 11.24L99.07 11.24L99.07 11.24Q99.11 11.25 99.15 11.29L99.15 11.29L99.15 11.29Q99.18 11.33 99.18 11.40ZM101.90 5.46L101.90 5.46L101.90 5.46Q101.90 5.50 101.89 5.68L101.89 5.68L101.89 5.68Q101.88 5.85 101.85 6.14L101.85 6.14L101.85 6.14Q101.83 6.43 101.79 6.81L101.79 6.81L101.79 6.81Q101.76 7.18 101.73 7.62L101.73 7.62L101.73 7.62Q102.16 7.57 102.54 7.54L102.54 7.54L102.54 7.54Q102.93 7.51 103.20 7.51L103.20 7.51L103.20 7.51Q103.28 7.51 103.35 7.54L103.35 7.54L103.35 7.54Q103.42 7.57 103.47 7.62L103.47 7.62L103.47 7.62Q103.51 7.66 103.54 7.71L103.54 7.71L103.54 7.71Q103.56 7.77 103.57 7.80L103.57 7.80L103.57 7.80Q103.57 7.83 103.58 7.86L103.58 7.86L103.58 7.86Q103.58 7.90 103.58 7.93L103.58 7.93L103.58 7.93Q103.58 8.07 103.47 8.20L103.47 8.20L103.47 8.20Q103.35 8.34 103.11 8.37L103.11 8.37L101.65 8.53L101.65 8.53Q101.62 9.02 101.59 9.54L101.59 9.54L101.59 9.54Q101.56 10.06 101.54 10.58L101.54 10.58L101.54 10.58Q101.51 11.09 101.50 11.59L101.50 11.59L101.50 11.59Q101.49 12.09 101.49 12.54L101.49 12.54L101.49 12.54Q101.49 12.82 101.50 13.00L101.50 13.00L101.50 13.00Q101.51 13.18 101.51 13.23L101.51 13.23L101.51 13.23Q101.51 13.35 101.47 13.46L101.47 13.46L101.47 13.46Q101.42 13.58 101.37 13.67L101.37 13.67L101.37 13.67Q101.31 13.76 101.24 13.82L101.24 13.82L101.24 13.82Q101.18 13.88 101.14 13.88L101.14 13.88L101.14 13.88Q100.89 13.88 100.75 13.72L100.75 13.72L100.75 13.72Q100.60 13.57 100.53 13.31L100.53 13.31L100.53 13.31Q100.46 13.05 100.44 12.71L100.44 12.71L100.44 12.71Q100.42 12.38 100.42 12.02L100.42 12.02L100.42 12.02Q100.42 11.16 100.47 10.31L100.47 10.31L100.47 10.31Q100.52 9.45 100.60 8.65L100.60 8.65L99.75 8.76L99.75 8.76Q99.73 8.76 99.71 8.76L99.71 8.76L99.71 8.76Q99.69 8.77 99.66 8.77L99.66 8.77L99.66 8.77Q99.53 8.77 99.45 8.71L99.45 8.71L99.45 8.71Q99.37 8.65 99.33 8.57L99.33 8.57L99.33 8.57Q99.29 8.48 99.28 8.40L99.28 8.40L99.28 8.40Q99.27 8.31 99.27 8.26L99.27 8.26L99.27 8.26Q99.27 8.17 99.30 8.09L99.30 8.09L99.30 8.09Q99.33 8.00 99.40 7.98L99.40 7.98L99.40 7.98Q99.54 7.93 99.90 7.86L99.90 7.86L99.90 7.86Q100.26 7.80 100.71 7.73L100.71 7.73L100.71 7.73Q100.79 7.18 100.87 6.72L100.87 6.72L100.87 6.72Q100.95 6.25 101.02 5.92L101.02 5.92L101.02 5.92Q101.10 5.58 101.16 5.39L101.16 5.39L101.16 5.39Q101.23 5.20 101.27 5.20L101.27 5.20L101.27 5.20Q101.29 5.20 101.31 5.21L101.31 5.21L101.31 5.21Q101.33 5.22 101.34 5.22L101.34 5.22L101.34 5.22Q101.38 5.22 101.41 5.17L101.41 5.17L101.41 5.17Q101.43 5.13 101.50 5.13L101.50 5.13L101.50 5.13Q101.56 5.13 101.63 5.16L101.63 5.16L101.63 5.16Q101.71 5.20 101.76 5.26L101.76 5.26L101.76 5.26Q101.82 5.31 101.86 5.37L101.86 5.37L101.86 5.37Q101.90 5.43 101.90 5.46ZM105.29 4.58L105.29 4.58L105.29 4.58Q105.30 4.72 105.28 4.88L105.28 4.88L105.28 4.88Q105.27 5.05 105.23 5.21L105.23 5.21L105.23 5.21Q105.19 5.37 105.13 5.49L105.13 5.49L105.13 5.49Q105.06 5.61 104.97 5.66L104.97 5.66L104.97 5.66Q104.75 5.78 104.58 5.78L104.58 5.78L104.58 5.78Q104.44 5.78 104.34 5.71L104.34 5.71L104.34 5.71Q104.24 5.65 104.15 5.56L104.15 5.56L104.15 5.56Q104.01 5.46 103.92 5.28L103.92 5.28L103.92 5.28Q103.82 5.10 103.82 4.94L103.82 4.94L103.82 4.94Q103.82 4.81 103.87 4.62L103.87 4.62L103.87 4.62Q103.91 4.43 103.98 4.25L103.98 4.25L103.98 4.25Q104.05 4.07 104.13 3.93L104.13 3.93L104.13 3.93Q104.21 3.78 104.28 3.73L104.28 3.73L104.28 3.73Q104.40 3.63 104.50 3.62L104.50 3.62L104.50 3.62Q104.60 3.61 104.66 3.63L104.66 3.63L104.66 3.63Q104.81 3.66 104.92 3.72L104.92 3.72L104.92 3.72Q105.04 3.77 105.12 3.87L105.12 3.87L105.12 3.87Q105.20 3.98 105.24 4.15L105.24 4.15L105.24 4.15Q105.28 4.32 105.29 4.58ZM104.73 7.64L104.73 7.64L104.73 7.64Q104.77 7.67 104.78 7.86L104.78 7.86L104.78 7.86Q104.80 8.05 104.80 8.36L104.80 8.36L104.80 8.36Q104.80 8.57 104.79 8.80L104.79 8.80L104.79 8.80Q104.79 9.04 104.78 9.30L104.78 9.30L104.78 9.30Q104.77 9.55 104.75 9.81L104.75 9.81L104.75 9.81Q104.74 10.06 104.73 10.29L104.73 10.29L104.73 10.29Q104.71 10.68 104.71 11.00L104.71 11.00L104.71 11.00Q104.71 11.33 104.71 11.63L104.71 11.63L104.71 11.63Q104.71 12.02 104.71 12.35L104.71 12.35L104.71 12.35Q104.72 12.68 104.72 12.90L104.72 12.90L104.72 12.90Q104.72 13.14 104.70 13.27L104.70 13.27L104.70 13.27Q104.69 13.39 104.63 13.41L104.63 13.41L104.63 13.41Q104.57 13.42 104.53 13.46L104.53 13.46L104.53 13.46Q104.49 13.51 104.45 13.55L104.45 13.55L104.45 13.55Q104.42 13.59 104.37 13.62L104.37 13.62L104.37 13.62Q104.33 13.65 104.27 13.64L104.27 13.64L104.27 13.64Q104.23 13.63 104.15 13.58L104.15 13.58L104.15 13.58Q104.07 13.52 103.98 13.44L103.98 13.44L103.98 13.44Q103.89 13.36 103.80 13.26L103.80 13.26L103.80 13.26Q103.72 13.16 103.69 13.05L103.69 13.05L103.69 13.05Q103.68 13.00 103.67 12.83L103.67 12.83L103.67 12.83Q103.66 12.67 103.65 12.43L103.65 12.43L103.65 12.43Q103.65 12.20 103.64 11.92L103.64 11.92L103.64 11.92Q103.63 11.63 103.63 11.34L103.63 11.34L103.63 11.34Q103.63 11.05 103.63 10.77L103.63 10.77L103.63 10.77Q103.63 10.49 103.63 10.27L103.63 10.27L103.63 10.27Q103.63 9.92 103.65 9.56L103.65 9.56L103.65 9.56Q103.67 9.19 103.70 8.88L103.70 8.88L103.70 8.88Q103.74 8.57 103.77 8.33L103.77 8.33L103.77 8.33Q103.80 8.09 103.81 8.00L103.81 8.00L103.81 8.00Q103.84 7.83 103.87 7.74L103.87 7.74L103.87 7.74Q103.90 7.65 103.94 7.61L103.94 7.61L103.94 7.61Q103.97 7.57 104.01 7.56L104.01 7.56L104.01 7.56Q104.05 7.55 104.09 7.54L104.09 7.54L104.09 7.54Q104.17 7.53 104.28 7.53L104.28 7.53L104.28 7.53Q104.38 7.54 104.48 7.55L104.48 7.55L104.48 7.55Q104.58 7.57 104.65 7.59L104.65 7.59L104.65 7.59Q104.72 7.62 104.73 7.64ZM110.67 10.62L110.67 10.62L110.67 10.62Q110.67 11.33 110.46 11.91L110.46 11.91L110.46 11.91Q110.25 12.48 109.89 12.89L109.89 12.89L109.89 12.89Q109.53 13.29 109.06 13.51L109.06 13.51L109.06 13.51Q108.59 13.73 108.06 13.73L108.06 13.73L108.06 13.73Q107.84 13.73 107.58 13.68L107.58 13.68L107.58 13.68Q107.32 13.62 107.06 13.51L107.06 13.51L107.06 13.51Q106.80 13.39 106.56 13.20L106.56 13.20L106.56 13.20Q106.31 13.01 106.12 12.73L106.12 12.73L106.12 12.73Q105.93 12.45 105.82 12.07L105.82 12.07L105.82 12.07Q105.70 11.70 105.71 11.20L105.71 11.20L105.71 11.20Q105.71 10.64 105.85 10.18L105.85 10.18L105.85 10.18Q105.98 9.72 106.20 9.35L106.20 9.35L106.20 9.35Q106.42 8.99 106.69 8.72L106.69 8.72L106.69 8.72Q106.96 8.46 107.24 8.27L107.24 8.27L107.24 8.27Q107.51 8.09 107.76 8.00L107.76 8.00L107.76 8.00Q108.01 7.92 108.20 7.90L108.20 7.90L108.20 7.90Q108.29 7.90 108.28 7.92L108.28 7.92L108.28 7.92Q108.27 7.95 108.23 7.98L108.23 7.98L108.23 7.98Q108.19 8.02 108.16 8.05L108.16 8.05L108.16 8.05Q108.13 8.09 108.19 8.09L108.19 8.09L108.19 8.09Q108.23 8.11 108.26 8.12L108.26 8.12L108.26 8.12Q108.29 8.13 108.33 8.16L108.33 8.16L108.38 8.09L108.38 8.09Q108.43 8.06 108.48 8.06L108.48 8.06L108.48 8.06Q108.52 8.06 108.55 8.07L108.55 8.07L108.55 8.07Q108.59 8.08 108.61 8.08L108.61 8.08L108.61 8.08Q108.63 8.08 108.64 8.04L108.64 8.04L108.64 8.04Q108.65 7.96 108.69 7.95L108.69 7.95L108.69 7.95Q108.73 7.94 108.86 7.94L108.86 7.94L108.86 7.94Q108.94 7.94 109.11 7.99L109.11 7.99L109.11 7.99Q109.28 8.04 109.48 8.16L109.48 8.16L109.48 8.16Q109.68 8.27 109.89 8.47L109.89 8.47L109.89 8.47Q110.10 8.66 110.27 8.96L110.27 8.96L110.27 8.96Q110.45 9.26 110.56 9.67L110.56 9.67L110.56 9.67Q110.67 10.08 110.67 10.62ZM108.20 8.61L108.20 8.61L108.20 8.61Q107.96 8.76 107.73 9.00L107.73 9.00L107.73 9.00Q107.50 9.25 107.31 9.57L107.31 9.57L107.31 9.57Q107.12 9.89 107.00 10.29L107.00 10.29L107.00 10.29Q106.89 10.68 106.89 11.12L106.89 11.12L106.89 11.12Q106.89 11.59 106.97 11.98L106.97 11.98L106.97 11.98Q107.06 12.36 107.22 12.63L107.22 12.63L107.22 12.63Q107.39 12.90 107.62 13.05L107.62 13.05L107.62 13.05Q107.86 13.19 108.16 13.19L108.16 13.19L108.16 13.19Q108.42 13.19 108.69 13.04L108.69 13.04L108.69 13.04Q108.95 12.89 109.16 12.59L109.16 12.59L109.16 12.59Q109.36 12.29 109.49 11.85L109.49 11.85L109.49 11.85Q109.61 11.40 109.61 10.81L109.61 10.81L109.61 10.81Q109.61 10.22 109.46 9.82L109.46 9.82L109.46 9.82Q109.30 9.41 109.10 9.16L109.10 9.16L109.10 9.16Q108.91 8.91 108.73 8.81L108.73 8.81L108.73 8.81Q108.55 8.70 108.51 8.70L108.51 8.70L108.51 8.70Q108.42 8.70 108.37 8.70L108.37 8.70L108.37 8.70Q108.32 8.70 108.20 8.61ZM115.83 13.21L115.83 13.21L115.83 13.21Q115.83 13.29 115.78 13.39L115.78 13.39L115.78 13.39Q115.72 13.49 115.61 13.49L115.61 13.49L115.61 13.49Q115.55 13.49 115.51 13.45L115.51 13.45L115.51 13.45Q115.48 13.42 115.45 13.42L115.45 13.42L115.45 13.42Q115.40 13.42 115.35 13.45L115.35 13.45L115.35 13.45Q115.31 13.49 115.21 13.49L115.21 13.49L115.21 13.49Q115.07 13.49 114.97 13.39L114.97 13.39L114.97 13.39Q114.87 13.29 114.81 13.14L114.81 13.14L114.81 13.14Q114.75 12.98 114.72 12.80L114.72 12.80L114.72 12.80Q114.69 12.62 114.69 12.46L114.69 12.46L114.69 12.46Q114.69 12.15 114.71 11.76L114.71 11.76L114.71 11.76Q114.73 11.37 114.77 10.95L114.77 10.95L114.77 10.95Q114.80 10.54 114.82 10.13L114.82 10.13L114.82 10.13Q114.84 9.72 114.84 9.37L114.84 9.37L114.84 9.37Q114.84 8.91 114.78 8.65L114.78 8.65L114.78 8.65Q114.72 8.39 114.56 8.39L114.56 8.39L114.56 8.39Q114.41 8.41 114.26 8.65L114.26 8.65L114.26 8.65Q114.10 8.89 113.93 9.26L113.93 9.26L113.93 9.26Q113.77 9.63 113.61 10.10L113.61 10.10L113.61 10.10Q113.46 10.57 113.31 11.06L113.31 11.06L113.31 11.06Q113.16 11.55 113.03 12.01L113.03 12.01L113.03 12.01Q112.90 12.47 112.80 12.83L112.80 12.83L112.80 12.83Q112.70 13.19 112.62 13.42L112.62 13.42L112.62 13.42Q112.55 13.64 112.52 13.64L112.52 13.64L112.52 13.64Q112.46 13.64 112.44 13.61L112.44 13.61L112.44 13.61Q112.41 13.59 112.39 13.56L112.39 13.56L112.39 13.56Q112.36 13.54 112.33 13.51L112.33 13.51L112.33 13.51Q112.29 13.49 112.23 13.49L112.23 13.49L112.23 13.49Q112.16 13.49 112.14 13.50L112.14 13.50L112.14 13.50Q112.12 13.51 112.10 13.54L112.10 13.54L112.10 13.54Q112.07 13.56 112.03 13.57L112.03 13.57L112.03 13.57Q111.99 13.58 111.88 13.58L111.88 13.58L111.88 13.58Q111.76 13.58 111.64 13.52L111.64 13.52L111.64 13.52Q111.52 13.46 111.52 13.33L111.52 13.33L111.52 13.33Q111.52 13.25 111.55 12.99L111.55 12.99L111.55 12.99Q111.58 12.74 111.61 12.36L111.61 12.36L111.61 12.36Q111.65 11.99 111.70 11.53L111.70 11.53L111.70 11.53Q111.74 11.07 111.78 10.58L111.78 10.58L111.78 10.58Q111.82 10.08 111.84 9.59L111.84 9.59L111.84 9.59Q111.87 9.10 111.87 8.65L111.87 8.65L111.87 8.65Q111.87 8.44 111.86 8.25L111.86 8.25L111.86 8.25Q111.86 8.06 111.86 7.89L111.86 7.89L111.86 7.89Q111.86 7.85 111.90 7.85L111.90 7.85L111.90 7.85Q111.98 7.85 112.02 7.88L112.02 7.88L112.02 7.88Q112.07 7.91 112.09 7.94L112.09 7.94L112.09 7.94Q112.11 7.98 112.11 8.01L112.11 8.01L112.11 8.01Q112.12 8.04 112.12 8.04L112.12 8.04L112.12 8.04Q112.14 8.04 112.17 8.02L112.17 8.02L112.17 8.02Q112.20 7.99 112.23 7.96L112.23 7.96L112.23 7.96Q112.26 7.94 112.29 7.91L112.29 7.91L112.29 7.91Q112.31 7.89 112.33 7.89L112.33 7.89L112.40 7.89L112.40 7.89Q112.51 7.89 112.55 7.86L112.55 7.86L112.55 7.86Q112.59 7.83 112.60 7.79L112.60 7.79L112.60 7.79Q112.62 7.75 112.63 7.72L112.63 7.72L112.63 7.72Q112.64 7.69 112.67 7.69L112.67 7.69L112.67 7.69Q112.69 7.69 112.73 7.72L112.73 7.72L112.73 7.72Q112.77 7.75 112.80 7.82L112.80 7.82L112.80 7.82Q112.84 7.90 112.87 8.01L112.87 8.01L112.87 8.01Q112.90 8.13 112.90 8.29L112.90 8.29L112.90 8.29Q112.90 8.51 112.88 8.85L112.88 8.85L112.88 8.85Q112.86 9.18 112.84 9.56L112.84 9.56L112.84 9.56Q112.81 9.94 112.79 10.33L112.79 10.33L112.79 10.33Q112.77 10.71 112.77 11.03L112.77 11.03L112.77 11.03Q112.84 10.73 112.95 10.37L112.95 10.37L112.95 10.37Q113.05 10.01 113.19 9.65L113.19 9.65L113.19 9.65Q113.33 9.28 113.50 8.92L113.50 8.92L113.50 8.92Q113.66 8.57 113.85 8.30L113.85 8.30L113.85 8.30Q114.04 8.03 114.26 7.86L114.26 7.86L114.26 7.86Q114.47 7.69 114.70 7.69L114.70 7.69L114.70 7.69Q115.07 7.69 115.31 7.83L115.31 7.83L115.31 7.83Q115.54 7.96 115.68 8.20L115.68 8.20L115.68 8.20Q115.81 8.44 115.87 8.76L115.87 8.76L115.87 8.76Q115.92 9.08 115.92 9.45L115.92 9.45L115.92 9.45Q115.92 9.77 115.89 10.11L115.89 10.11L115.89 10.11Q115.86 10.46 115.83 10.80L115.83 10.80L115.83 10.80Q115.80 11.15 115.78 11.48L115.78 11.48L115.78 11.48Q115.75 11.82 115.75 12.11L115.75 12.11L115.75 12.11Q115.75 12.48 115.79 12.77L115.79 12.77L115.79 12.77Q115.83 13.06 115.83 13.21Z"></path></g><!----><g data-v-423bf9ae="" id="6d47e5bb-702b-44d1-9ea0-7da9115c5f2e" transform="matrix(1.4345373057552449,0,0,1.4345373057552449,-19.532583296397604,-26.095865597777546)" stroke="none" fill="#ffffff"><switch><g><path d="M49.831 81.369c-12.404 0-22.497-10.092-22.497-22.496 0-.863.061-1.752.191-2.787.657-9.981 7.618-21.99 20.691-35.693l1.681-1.762 1.728 1.712c.723.714 17.686 17.66 20.24 33.979.307 1.5.464 3.029.464 4.551 0 12.404-10.093 22.496-22.498 22.496zm.125-55.85C38.758 37.637 32.816 48.04 32.289 56.461l-.015.154c-.11.863-.162 1.582-.162 2.258 0 9.77 7.949 17.719 17.719 17.719 9.771 0 17.719-7.949 17.719-17.719 0-1.215-.125-2.439-.376-3.637l-.021-.125c-1.84-11.924-12.911-24.933-17.197-29.592z"></path><path d="M24.945 57.678c0-.863.061-1.75.19-2.787.512-7.759 4.85-16.749 12.889-26.802-3.689-4.93-7.062-8.269-7.062-8.269-11.836 12.408-16.191 21.618-16.618 28.419a16.69 16.69 0 0 0-.149 2.122c0 7.787 5.343 14.305 12.558 16.141a22.361 22.361 0 0 1-1.808-8.824zM75.056 57.678c0-.863-.061-1.75-.191-2.787-.511-7.759-4.849-16.749-12.889-26.802 3.689-4.93 7.062-8.269 7.062-8.269C80.876 32.227 85.23 41.438 85.657 48.239c.089.696.149 1.402.149 2.122 0 7.787-5.343 14.305-12.558 16.141a22.361 22.361 0 0 0 1.808-8.824zM53.017 73.307c-3.953 0-7.167-3.215-7.167-7.168 0-3.951 3.214-7.166 7.167-7.166 3.952 0 7.168 3.215 7.168 7.166 0 3.953-3.216 7.168-7.168 7.168zm0-11.946c-2.634 0-4.777 2.143-4.777 4.777s2.144 4.779 4.777 4.779c2.635 0 4.778-2.145 4.778-4.779s-2.144-4.777-4.778-4.777zM62.35 60.764A2.765 2.765 0 0 1 59.588 58a2.766 2.766 0 0 1 2.762-2.762A2.767 2.767 0 0 1 65.112 58a2.767 2.767 0 0 1-2.762 2.764zm0-4.33c-.865 0-1.568.703-1.568 1.566a1.57 1.57 0 0 0 1.568 1.568A1.57 1.57 0 0 0 63.917 58a1.57 1.57 0 0 0-1.567-1.566z"></path></g></switch></g><!----><g data-v-423bf9ae="" id="86392b0c-93a2-4455-8989-458d93eac4ec" fill="#ffffff" transform="matrix(1.2397606137807684,0,0,1.2397606137807684,121.69965638485161,52.95816113347682)"><path d="M3.35 12.07L3.35 10.98L7.71 10.98L7.71 15.68L6.62 15.68L6.62 14.50L6.45 14.50L6.45 14.50Q6.22 15.12 5.61 15.50L5.61 15.50L5.61 15.50Q5.01 15.88 4.21 15.88L4.21 15.88L4.21 15.88Q2.63 15.88 1.73 14.85L1.73 14.85L1.73 14.85Q0.83 13.83 0.83 11.87L0.83 11.87L0.83 9.69L0.83 9.69Q0.83 7.78 1.74 6.73L1.74 6.73L1.74 6.73Q2.65 5.68 4.27 5.68L4.27 5.68L4.27 5.68Q5.11 5.68 5.75 5.96L5.75 5.96L5.75 5.96Q6.40 6.23 6.83 6.71L6.83 6.71L6.83 6.71Q7.27 7.20 7.49 7.85L7.49 7.85L7.49 7.85Q7.71 8.50 7.71 9.24L7.71 9.24L7.71 9.41L6.54 9.41L6.54 9.24L6.54 9.24Q6.54 8.76 6.41 8.32L6.41 8.32L6.41 8.32Q6.27 7.87 6.00 7.53L6.00 7.53L6.00 7.53Q5.73 7.18 5.30 6.98L5.30 6.98L5.30 6.98Q4.87 6.78 4.27 6.78L4.27 6.78L4.27 6.78Q3.14 6.78 2.57 7.60L2.57 7.60L2.57 7.60Q2.00 8.43 2.00 9.77L2.00 9.77L2.00 11.79L2.00 11.79Q2.00 13.23 2.57 14.01L2.57 14.01L2.57 14.01Q3.14 14.78 4.30 14.78L4.30 14.78L4.30 14.78Q5.35 14.78 5.94 14.11L5.94 14.11L5.94 14.11Q6.54 13.44 6.54 12.24L6.54 12.24L6.54 12.07L3.35 12.07ZM16.41 11.87L16.41 9.69L16.41 9.69Q16.41 7.78 17.32 6.73L17.32 6.73L17.32 6.73Q18.23 5.68 19.85 5.68L19.85 5.68L19.85 5.68Q21.48 5.68 22.39 6.73L22.39 6.73L22.39 6.73Q23.30 7.78 23.30 9.69L23.30 9.69L23.30 11.87L23.30 11.87Q23.30 13.83 22.39 14.85L22.39 14.85L22.39 14.85Q21.48 15.88 19.85 15.88L19.85 15.88L19.85 15.88Q18.23 15.88 17.32 14.85L17.32 14.85L17.32 14.85Q16.41 13.83 16.41 11.87L16.41 11.87ZM19.85 14.78L19.85 14.78L19.85 14.78Q20.99 14.78 21.55 14.01L21.55 14.01L21.55 14.01Q22.12 13.23 22.12 11.79L22.12 11.79L22.12 9.77L22.12 9.77Q22.12 8.43 21.55 7.60L21.55 7.60L21.55 7.60Q20.99 6.78 19.85 6.78L19.85 6.78L19.85 6.78Q18.72 6.78 18.15 7.60L18.15 7.60L18.15 7.60Q17.58 8.43 17.58 9.77L17.58 9.77L17.58 11.79L17.58 11.79Q17.58 13.23 18.15 14.01L18.15 14.01L18.15 14.01Q18.72 14.78 19.85 14.78ZM50.05 12.07L50.05 10.98L54.42 10.98L54.42 15.68L53.33 15.68L53.33 14.50L53.16 14.50L53.16 14.50Q52.92 15.12 52.32 15.50L52.32 15.50L52.32 15.50Q51.72 15.88 50.92 15.88L50.92 15.88L50.92 15.88Q49.34 15.88 48.43 14.85L48.43 14.85L48.43 14.85Q47.53 13.83 47.53 11.87L47.53 11.87L47.53 9.69L47.53 9.69Q47.53 7.78 48.44 6.73L48.44 6.73L48.44 6.73Q49.35 5.68 50.97 5.68L50.97 5.68L50.97 5.68Q51.81 5.68 52.46 5.96L52.46 5.96L52.46 5.96Q53.10 6.23 53.54 6.71L53.54 6.71L53.54 6.71Q53.97 7.20 54.19 7.85L54.19 7.85L54.19 7.85Q54.42 8.50 54.42 9.24L54.42 9.24L54.42 9.41L53.24 9.41L53.24 9.24L53.24 9.24Q53.24 8.76 53.11 8.32L53.11 8.32L53.11 8.32Q52.98 7.87 52.70 7.53L52.70 7.53L52.70 7.53Q52.43 7.18 52.00 6.98L52.00 6.98L52.00 6.98Q51.58 6.78 50.97 6.78L50.97 6.78L50.97 6.78Q49.84 6.78 49.27 7.60L49.27 7.60L49.27 7.60Q48.71 8.43 48.71 9.77L48.71 9.77L48.71 11.79L48.71 11.79Q48.71 13.23 49.27 14.01L49.27 14.01L49.27 14.01Q49.84 14.78 51.00 14.78L51.00 14.78L51.00 14.78Q52.05 14.78 52.65 14.11L52.65 14.11L52.65 14.11Q53.24 13.44 53.24 12.24L53.24 12.24L53.24 12.07L50.05 12.07ZM69.62 12.15L69.62 15.68L68.45 15.68L68.45 12.40L68.45 12.40Q68.45 12.04 68.28 11.84L68.28 11.84L68.28 11.84Q68.11 11.65 67.69 11.65L67.69 11.65L64.64 11.65L64.64 15.68L63.46 15.68L63.46 5.88L66.96 5.88L66.96 5.88Q67.72 5.88 68.28 6.10L68.28 6.10L68.28 6.10Q68.84 6.31 69.21 6.68L69.21 6.68L69.21 6.68Q69.58 7.04 69.77 7.53L69.77 7.53L69.77 7.53Q69.96 8.01 69.96 8.54L69.96 8.54L69.96 8.96L69.96 8.96Q69.96 9.51 69.66 10.05L69.66 10.05L69.66 10.05Q69.36 10.60 68.73 10.89L68.73 10.89L68.73 11.06L68.73 11.06Q69.15 11.13 69.38 11.40L69.38 11.40L69.38 11.40Q69.62 11.66 69.62 12.15L69.62 12.15ZM64.64 6.97L64.64 10.56L66.82 10.56L66.82 10.56Q67.82 10.56 68.30 10.13L68.30 10.13L68.30 10.13Q68.78 9.70 68.78 8.88L68.78 8.88L68.78 8.62L68.78 8.62Q68.78 7.88 68.30 7.43L68.30 7.43L68.30 7.43Q67.82 6.97 66.82 6.97L66.82 6.97L64.64 6.97ZM79.16 15.68L79.16 5.88L85.09 5.88L85.09 6.97L80.33 6.97L80.33 10.22L85.01 10.22L85.01 11.31L80.33 11.31L80.33 14.59L85.18 14.59L85.18 15.68L79.16 15.68ZM94.72 15.68L94.72 5.88L100.66 5.88L100.66 6.97L95.90 6.97L95.90 10.22L100.58 10.22L100.58 11.31L95.90 11.31L95.90 14.59L100.74 14.59L100.74 15.68L94.72 15.68ZM112.35 5.88L115.18 15.18L115.35 15.18L115.35 5.88L116.52 5.88L116.52 15.68L114.17 15.68L111.34 6.38L111.17 6.38L111.17 15.68L110.00 15.68L110.00 5.88L112.35 5.88ZM127.85 14.90L127.85 14.90L127.85 14.90Q127.85 14.49 128.13 14.20L128.13 14.20L128.13 14.20Q128.42 13.92 128.83 13.92L128.83 13.92L128.83 13.92Q129.23 13.92 129.52 14.20L129.52 14.20L129.52 14.20Q129.81 14.49 129.81 14.90L129.81 14.90L129.81 16.27L129.81 16.27Q129.81 16.74 129.51 17.05L129.51 17.05L129.51 17.05Q129.21 17.36 128.73 17.36L128.73 17.36L128.02 17.36L128.02 16.60L128.67 16.60L128.67 16.60Q129.05 16.60 129.05 16.18L129.05 16.18L129.05 15.83L129.05 15.83Q128.94 15.88 128.81 15.88L128.81 15.88L128.81 15.88Q128.42 15.88 128.13 15.59L128.13 15.59L128.13 15.59Q127.85 15.30 127.85 14.90ZM141.13 6.97L141.13 5.88L144.35 5.88L144.35 5.88Q146.17 5.88 147.01 6.75L147.01 6.75L147.01 6.75Q147.85 7.62 147.85 9.52L147.85 9.52L147.85 12.04L147.85 12.04Q147.85 13.94 147.01 14.81L147.01 14.81L147.01 14.81Q146.17 15.68 144.35 15.68L144.35 15.68L141.13 15.68L141.13 14.57L141.97 14.57L141.97 6.97L141.13 6.97ZM143.15 14.59L144.19 14.59L144.19 14.59Q144.83 14.59 145.30 14.46L145.30 14.46L145.30 14.46Q145.77 14.34 146.08 14.04L146.08 14.04L146.08 14.04Q146.38 13.73 146.53 13.23L146.53 13.23L146.53 13.23Q146.68 12.73 146.68 11.96L146.68 11.96L146.68 9.60L146.68 9.60Q146.68 8.83 146.53 8.33L146.53 8.33L146.53 8.33Q146.38 7.83 146.08 7.53L146.08 7.53L146.08 7.53Q145.77 7.22 145.30 7.10L145.30 7.10L145.30 7.10Q144.83 6.97 144.19 6.97L144.19 6.97L143.15 6.97L143.15 14.59ZM163.03 12.15L163.03 15.68L161.85 15.68L161.85 12.40L161.85 12.40Q161.85 12.04 161.69 11.84L161.69 11.84L161.69 11.84Q161.52 11.65 161.10 11.65L161.10 11.65L158.05 11.65L158.05 15.68L156.87 15.68L156.87 5.88L160.37 5.88L160.37 5.88Q161.13 5.88 161.69 6.10L161.69 6.10L161.69 6.10Q162.25 6.31 162.62 6.68L162.62 6.68L162.62 6.68Q162.99 7.04 163.18 7.53L163.18 7.53L163.18 7.53Q163.37 8.01 163.37 8.54L163.37 8.54L163.37 8.96L163.37 8.96Q163.37 9.51 163.06 10.05L163.06 10.05L163.06 10.05Q162.76 10.60 162.13 10.89L162.13 10.89L162.13 11.06L162.13 11.06Q162.55 11.13 162.79 11.40L162.79 11.40L162.79 11.40Q163.03 11.66 163.03 12.15L163.03 12.15ZM158.05 6.97L158.05 10.56L160.23 10.56L160.23 10.56Q161.22 10.56 161.71 10.13L161.71 10.13L161.71 10.13Q162.19 9.70 162.19 8.88L162.19 8.88L162.19 8.62L162.19 8.62Q162.19 7.88 161.71 7.43L161.71 7.43L161.71 7.43Q161.22 6.97 160.23 6.97L160.23 6.97L158.05 6.97ZM172.42 6.97L172.42 5.88L178.64 5.88L178.64 6.97L176.12 6.97L176.12 14.59L178.64 14.59L178.64 15.68L172.42 15.68L172.42 14.59L174.94 14.59L174.94 6.97L172.42 6.97ZM190.19 5.88L193.02 15.18L193.19 15.18L193.19 5.88L194.36 5.88L194.36 15.68L192.01 15.68L189.18 6.38L189.01 6.38L189.01 15.68L187.84 15.68L187.84 5.88L190.19 5.88ZM204.81 11.31L204.81 15.68L203.63 15.68L203.63 5.88L204.81 5.88L204.81 10.22L205.13 10.22L208.89 5.88L210.35 5.88L210.35 5.96L206.29 10.70L206.29 10.86L210.52 15.60L210.52 15.68L209.03 15.68L205.13 11.31L204.81 11.31ZM237.86 14.78L237.86 14.78L237.86 14.78Q238.46 14.78 238.89 14.58L238.89 14.58L238.89 14.58Q239.32 14.38 239.59 14.04L239.59 14.04L239.59 14.04Q239.86 13.69 240.00 13.25L240.00 13.25L240.00 13.25Q240.13 12.81 240.13 12.32L240.13 12.32L240.13 12.15L241.30 12.15L241.30 12.32L241.30 12.32Q241.30 13.06 241.08 13.71L241.08 13.71L241.08 13.71Q240.86 14.36 240.42 14.85L240.42 14.85L240.42 14.85Q239.99 15.33 239.34 15.60L239.34 15.60L239.34 15.60Q238.70 15.88 237.86 15.88L237.86 15.88L237.86 15.88Q236.24 15.88 235.33 14.85L235.33 14.85L235.33 14.85Q234.42 13.83 234.42 11.87L234.42 11.87L234.42 9.69L234.42 9.69Q234.42 7.78 235.33 6.73L235.33 6.73L235.33 6.73Q236.24 5.68 237.86 5.68L237.86 5.68L237.86 5.68Q238.70 5.68 239.34 5.96L239.34 5.96L239.34 5.96Q239.99 6.23 240.42 6.71L240.42 6.71L240.42 6.71Q240.86 7.20 241.08 7.85L241.08 7.85L241.08 7.85Q241.30 8.50 241.30 9.24L241.30 9.24L241.30 9.41L240.13 9.41L240.13 9.24L240.13 9.24Q240.11 8.76 239.98 8.32L239.98 8.32L239.98 8.32Q239.85 7.87 239.58 7.53L239.58 7.53L239.58 7.53Q239.30 7.18 238.88 6.98L238.88 6.98L238.88 6.98Q238.46 6.78 237.86 6.78L237.86 6.78L237.86 6.78Q236.73 6.78 236.16 7.60L236.16 7.60L236.16 7.60Q235.59 8.43 235.59 9.77L235.59 9.77L235.59 11.79L235.59 11.79Q235.59 13.23 236.16 14.01L236.16 14.01L236.16 14.01Q236.73 14.78 237.86 14.78ZM250.31 15.68L250.31 5.88L251.48 5.88L251.48 14.59L256.61 14.59L256.61 15.68L250.31 15.68ZM265.97 15.68L265.97 5.88L271.91 5.88L271.91 6.97L267.15 6.97L267.15 10.22L271.82 10.22L271.82 11.31L267.15 11.31L267.15 14.59L271.99 14.59L271.99 15.68L265.97 15.68ZM287.32 15.68L286.61 13.24L282.41 13.24L281.69 15.68L280.43 15.68L283.40 5.88L285.61 5.88L288.58 15.68L287.32 15.68ZM284.59 6.38L284.42 6.38L282.73 12.15L286.29 12.15L284.59 6.38ZM299.17 5.88L301.99 15.18L302.16 15.18L302.16 5.88L303.34 5.88L303.34 15.68L300.99 15.68L298.16 6.38L297.99 6.38L297.99 15.68L296.81 15.68L296.81 5.88L299.17 5.88Z"></path></g></svg>